<svg width="365" height="293" fill="none" xmlns="http://www.w3.org/2000/svg"><rect width="365" height="293" rx="18" fill="url(#a)"/><path d="M267.581 263.708c-.651 0-1.268 0-2.971-6.784-5.746-1.106-6.233-1.76-6.421-2.011-.164-.221-.233-.624-.159-.888.103-.37.347-1.227 6.913-3.874 2.361-6.151 3.164-6.151 3.699-6.151.278 0 .662.199.828.424.425.568.807 2.042 1.387 4.399.182.734.399 1.62.525 2.015.346.154 1.101.425 1.728.65 3.385 1.213 4.258 1.625 4.415 2.437.061.306-.095.75-.328.959-.686.616-3.945 1.827-5.659 2.437-2.782 6.329-3.38 6.358-3.908 6.386l-.049.001Zm-7.132-9.558c1.151.33 3.231.802 5.046 1.141.34.062.613.32.696.657.465 1.881 1.071 4.024 1.508 5.258.638-1.149 1.595-3.166 2.372-4.947a.894.894 0 0 1 .517-.481c1.55-.544 3.298-1.214 4.397-1.693-.767-.324-1.801-.693-2.471-.934-1.93-.691-2.293-.841-2.541-1.176-.22-.294-.353-.779-.833-2.73-.18-.726-.453-1.837-.696-2.675-.572 1.095-1.365 2.939-1.984 4.57a.893.893 0 0 1-.5.51c-2.014.804-4.3 1.827-5.511 2.5ZM32.565 146.659h-.006a.885.885 0 0 1-.88-.89l.09-14.889c.004-.488.4-.88.885-.88h.006c.489.003.883.401.88.89l-.09 14.889a.886.886 0 0 1-.885.88Z" fill="#fff"/><path d="M26.565 143.408a.884.884 0 0 1-.506-1.61l12.295-8.572a.884.884 0 1 1 1.013 1.451l-12.296 8.572a.875.875 0 0 1-.506.159Z" fill="#fff"/><path d="M37.36 144.035a.884.884 0 0 1-.643-.276l-9.295-9.823a.886.886 0 0 1 1.285-1.217l9.296 9.823a.886.886 0 0 1-.643 1.493Z" fill="#fff"/><path d="M24.884 139.056a.884.884 0 0 1-.008-1.769l14.32-.137c.576-.005.889.387.894.877a.884.884 0 0 1-.876.893l-14.32.136h-.01ZM328.581 45c-1.177 0-2.176-.334-2.968-.995a7.425 7.425 0 0 1-.948-.943c-1.716 1.166-4.277 1.778-7.458 1.778-.443 0-.902-.01-1.378-.035-2.713-.138-4.577-1.55-5.169-3.896-1.422-.225-2.903-.916-4.31-2.012-2.189-1.706-2.892-4.21-1.927-6.866 1.004-2.764 3.607-4.93 5.928-4.93.375 0 .734.054 1.077.16.03-1.06.262-2.837 1.385-4.036 1.298-1.388 3.392-1.607 6.149-.602 1.046.38 1.958.86 2.717 1.427 1.31-1.244 2.944-1.95 4.553-1.95 1.205 0 2.377.378 3.483 1.12 2.471 1.66 3.92 4.133 3.956 6.701 1.465.096 2.831.806 3.971 2.07 1.535 1.703 1.777 3.93.683 6.267-1.681 3.592-6.234 6.742-9.744 6.742Zm-3.087-2.608c.24.29.516.563.824.82.589.492 1.351.741 2.263.741 3.084 0 7.26-2.921 8.761-6.128.644-1.373 1.076-3.38-.513-5.144-.956-1.061-2.04-1.637-3.222-1.714-.341 2.454-1.999 4.257-4.161 4.455-.11.01-.213.015-.31.015h-.002c-1.123 0-1.538-.648-1.552-1.253-.034-1.429 2.244-3.843 5.01-4.222-.023-2.238-1.305-4.41-3.494-5.88-.921-.62-1.886-.934-2.866-.934-1.305 0-2.646.577-3.744 1.599 1.716 1.704 1.994 3.746 1.472 5.091-.37.95-1.13 1.54-1.986 1.54h-.001c-.54 0-1.088-.232-1.584-.673-1.562-1.388-.952-3.971.57-5.87-.663-.485-1.46-.898-2.377-1.232-2.304-.839-3.974-.739-4.971.326-1.337 1.43-1.09 4.093-1.087 4.12a.52.52 0 0 1-.259.498.55.55 0 0 1-.576-.012 2.44 2.44 0 0 0-1.339-.387c-1.86 0-4.062 1.898-4.909 4.232-.473 1.299-.894 3.768 1.585 5.701 1.143.89 2.325 1.48 3.456 1.728-.134-1.777.395-3.72 1.361-4.843.478-.555 1.027-.849 1.586-.849.404 0 1.003.158 1.566.91.969 1.294 1.161 2.727.527 3.932-.65 1.238-2.035 1.99-3.721 2.03.428 1.306 1.502 2.64 4.083 2.77 3.644.177 6.422-.367 8.17-1.561-1.076-1.838-.935-3.814-.272-5.028.394-.72.952-1.134 1.531-1.134.399 0 1.123.2 1.49 1.532.498 1.805.021 3.538-1.309 4.824Zm-.179-5.308c-.102 0-.347.156-.577.576-.5.915-.611 2.398.151 3.833.94-1.003 1.25-2.28.871-3.654-.169-.616-.383-.755-.445-.755Zm-13.736 2.858c1.375.042 2.492-.525 2.983-1.457.442-.843.283-1.879-.439-2.842-.163-.219-.416-.478-.692-.478-.226 0-.495.167-.757.472-.709.823-1.295 2.563-1.095 4.305Zm20.926-8.906c-2.218.412-3.861 2.351-3.843 3.123.002.086.006.23.473.23h.001c.066 0 .135-.003.209-.01 1.59-.145 2.827-1.486 3.16-3.343Zm-10.737-5.507c-1.305 1.645-1.612 3.547-.649 4.403.739.656 1.481.435 1.831-.463.394-1.014.157-2.577-1.182-3.94Z" fill="#fff"/><defs><linearGradient id="a" x1="182.5" y1="-6.533" x2="182.5" y2="305.862" gradientUnits="userSpaceOnUse"><stop stop-color="#6D13FF"/><stop offset=".049" stop-color="#9859FF"/><stop offset=".898" stop-color="#9859FF"/><stop offset="1" stop-color="#6D13FF"/></linearGradient></defs></svg>