<svg width="365" height="294" fill="none" xmlns="http://www.w3.org/2000/svg"><rect y=".154" width="365" height="293" rx="18" fill="url(#a)"/><path d="M43.117 194.235h-.026a6.127 6.127 0 0 1-6.09-6.144c.013-3.359 2.757-6.091 6.116-6.091 3.398.014 6.132 2.77 6.118 6.143-.014 3.358-2.76 6.092-6.118 6.092Zm.019-10.466c-2.407 0-4.356 1.942-4.367 4.329a4.357 4.357 0 0 0 4.329 4.368h.019a4.358 4.358 0 0 0 4.349-4.33 4.353 4.353 0 0 0-4.33-4.367ZM84.581 60c-1.177 0-2.176-.334-2.968-.995a7.373 7.373 0 0 1-.948-.943c-1.716 1.166-4.277 1.778-7.458 1.778-.443 0-.902-.01-1.378-.035-2.713-.138-4.577-1.55-5.17-3.896-1.42-.225-2.902-.916-4.309-2.012-2.189-1.706-2.892-4.21-1.927-6.866 1.004-2.764 3.607-4.93 5.927-4.93.376 0 .735.054 1.078.16.03-1.06.262-2.837 1.385-4.036 1.298-1.388 3.392-1.607 6.15-.602 1.045.38 1.957.86 2.716 1.427 1.31-1.244 2.944-1.95 4.553-1.95 1.206 0 2.377.378 3.483 1.12 2.47 1.66 3.92 4.133 3.956 6.701 1.465.096 2.831.806 3.97 2.07 1.536 1.703 1.778 3.93.684 6.267C92.645 56.85 88.091 60 84.581 60Zm-3.087-2.608c.24.29.516.563.823.82.59.492 1.352.741 2.264.741 3.084 0 7.26-2.921 8.761-6.128.644-1.373 1.076-3.38-.513-5.144-.956-1.061-2.04-1.637-3.221-1.714-.342 2.454-2 4.257-4.162 4.455-.11.01-.213.015-.31.015h-.002c-1.123 0-1.538-.648-1.552-1.253-.034-1.429 2.244-3.843 5.01-4.222-.023-2.238-1.305-4.41-3.494-5.88-.921-.62-1.886-.934-2.867-.934-1.304 0-2.645.577-3.743 1.599 1.716 1.704 1.994 3.746 1.472 5.091-.37.95-1.13 1.54-1.986 1.54h-.001c-.54 0-1.088-.232-1.584-.673-1.562-1.388-.952-3.971.57-5.87-.663-.485-1.46-.898-2.377-1.232-2.304-.839-3.974-.739-4.97.326-1.338 1.43-1.09 4.093-1.088 4.12a.52.52 0 0 1-.26.498.55.55 0 0 1-.575-.012 2.44 2.44 0 0 0-1.339-.387c-1.86 0-4.062 1.898-4.91 4.232-.472 1.299-.893 3.768 1.586 5.701 1.143.89 2.325 1.48 3.456 1.728-.133-1.777.395-3.72 1.362-4.843.477-.555 1.026-.849 1.585-.849.404 0 1.003.158 1.566.91.969 1.294 1.16 2.727.527 3.932-.65 1.238-2.035 1.99-3.72 2.03.427 1.306 1.5 2.64 4.082 2.77 3.644.177 6.422-.367 8.17-1.561-1.076-1.838-.935-3.814-.272-5.028.394-.72.952-1.134 1.531-1.134.4 0 1.123.2 1.49 1.532.498 1.805.02 3.538-1.309 4.824Zm-.18-5.308c-.1 0-.346.156-.576.576-.5.915-.61 2.398.15 3.833.941-1.003 1.251-2.28.872-3.654-.17-.616-.383-.755-.445-.755ZM67.58 54.942c1.375.042 2.492-.525 2.983-1.457.442-.843.283-1.879-.438-2.842-.164-.219-.417-.478-.693-.478-.226 0-.495.167-.757.472-.709.823-1.295 2.563-1.095 4.305Zm20.926-8.906c-2.218.412-3.861 2.351-3.843 3.123.002.086.006.23.473.23h.001c.066 0 .135-.003.21-.01 1.589-.145 2.826-1.486 3.159-3.343ZM77.768 40.53c-1.305 1.645-1.612 3.547-.649 4.403.739.656 1.48.435 1.83-.463.395-1.014.158-2.577-1.181-3.94ZM329.565 75.659h-.006a.883.883 0 0 1-.879-.89l.09-14.89a.885.885 0 0 1 .884-.879h.006c.489.003.883.4.879.89l-.09 14.889a.885.885 0 0 1-.884.88Z" fill="#fff"/><path d="M323.565 72.408a.885.885 0 0 1-.506-1.61l12.295-8.572a.884.884 0 1 1 1.013 1.452l-12.296 8.572a.882.882 0 0 1-.506.158Z" fill="#fff"/><path d="M334.36 73.035a.885.885 0 0 1-.643-.276l-9.296-9.823a.887.887 0 0 1 .035-1.252.883.883 0 0 1 1.251.035l9.296 9.823a.886.886 0 0 1-.643 1.493Z" fill="#fff"/><path d="M321.884 68.056a.884.884 0 0 1-.008-1.77l14.321-.136c.575-.005.888.387.893.877a.884.884 0 0 1-.876.893l-14.321.136h-.009Z" fill="#fff"/><defs><linearGradient id="a" x1="182.5" y1="-6.379" x2="182.5" y2="306.017" gradientUnits="userSpaceOnUse"><stop stop-color="#6D13FF"/><stop offset=".049" stop-color="#9859FF"/><stop offset=".898" stop-color="#9859FF"/><stop offset="1" stop-color="#6D13FF"/></linearGradient></defs></svg>