<svg width="365" height="294" fill="none" xmlns="http://www.w3.org/2000/svg"><rect y=".154" width="365" height="293" rx="18" fill="url(#a)"/><path d="M320.117 200.236h-.026a6.071 6.071 0 0 1-4.318-1.811 6.065 6.065 0 0 1-1.773-4.332c.014-3.359 2.758-6.093 6.117-6.093 1.66.007 3.194.65 4.345 1.811a6.077 6.077 0 0 1 1.771 4.333c-.013 3.361-2.757 6.092-6.116 6.092Zm.019-10.466c-2.407 0-4.356 1.943-4.367 4.33a4.32 4.32 0 0 0 1.26 3.079 4.31 4.31 0 0 0 3.069 1.287h.019a4.356 4.356 0 0 0 4.347-4.328 4.312 4.312 0 0 0-1.26-3.081 4.32 4.32 0 0 0-3.068-1.287ZM46.117 45.235h-.026A6.127 6.127 0 0 1 40 39.091C40.013 35.73 42.757 33 46.116 33c3.398.014 6.132 2.77 6.118 6.143-.014 3.358-2.76 6.092-6.118 6.092Zm.019-10.466c-2.407 0-4.356 1.942-4.367 4.329a4.356 4.356 0 0 0 4.329 4.368h.019a4.358 4.358 0 0 0 4.349-4.33 4.353 4.353 0 0 0-4.33-4.367ZM63.283 207.866c-1.93 0-3.566-.565-4.864-1.682a12.288 12.288 0 0 1-1.554-1.593c-2.813 1.97-7.01 3.005-12.223 3.005-.726 0-1.477-.019-2.258-.06-4.446-.232-7.5-2.62-8.47-6.584-2.33-.38-4.757-1.546-7.062-3.399-3.587-2.883-4.74-7.113-3.159-11.602 1.645-4.671 5.911-8.33 9.714-8.33.615 0 1.204.09 1.766.269.048-1.792.428-4.795 2.27-6.82 2.126-2.346 5.558-2.716 10.076-1.018 1.714.643 3.209 1.453 4.453 2.412 2.146-2.103 4.824-3.295 7.461-3.295 1.975 0 3.895.638 5.708 1.893 4.048 2.805 6.424 6.984 6.483 11.324 2.4.16 4.639 1.361 6.507 3.497 2.515 2.878 2.912 6.64 1.12 10.59-2.755 6.069-10.216 11.393-15.968 11.393Zm-5.06-4.407c.394.489.846.952 1.35 1.386.966.83 2.215 1.252 3.71 1.252 5.054 0 11.896-4.937 14.357-10.355 1.054-2.321 1.762-5.713-.842-8.693-1.567-1.794-3.342-2.767-5.279-2.896-.56 4.147-3.276 7.193-6.82 7.528-.18.017-.349.024-.508.024h-.002c-1.84 0-2.521-1.094-2.544-2.116-.055-2.414 3.677-6.494 8.21-7.135-.038-3.782-2.138-7.452-5.725-9.937-1.51-1.047-3.091-1.577-4.698-1.577-2.138 0-4.336.975-6.134 2.702 2.811 2.88 3.267 6.33 2.412 8.603-.607 1.605-1.852 2.604-3.255 2.604h-.002c-.885 0-1.782-.394-2.595-1.139-2.56-2.346-1.56-6.711.933-9.92-1.085-.819-2.392-1.517-3.895-2.082-3.776-1.417-6.513-1.248-8.145.551-2.193 2.416-1.787 6.917-1.782 6.962a.886.886 0 0 1-1.368.822 3.91 3.91 0 0 0-2.195-.653c-3.047 0-6.657 3.207-8.045 7.15-.774 2.196-1.465 6.368 2.598 9.634 1.873 1.506 3.81 2.503 5.664 2.921-.22-3.003.646-6.288 2.23-8.185.783-.938 1.682-1.434 2.599-1.434.661 0 1.644.266 2.566 1.537 1.588 2.186 1.902 4.609.864 6.646-1.066 2.09-3.335 3.362-6.098 3.428.702 2.208 2.46 4.461 6.691 4.682 5.971.299 10.524-.62 13.39-2.638-1.765-3.105-1.533-6.446-.447-8.496.645-1.218 1.56-1.916 2.51-1.916.653 0 1.84.336 2.44 2.588.817 3.051.034 5.979-2.145 8.152Zm-.294-8.97c-.166 0-.568.264-.945.974-.819 1.545-1 4.053.247 6.477 1.541-1.695 2.05-3.853 1.429-6.176-.278-1.04-.628-1.275-.73-1.275Zm-22.509 4.829c2.254.071 4.084-.886 4.889-2.462.724-1.424.463-3.174-.72-4.802-.267-.37-.682-.808-1.134-.808-.37 0-.81.283-1.241.798-1.161 1.391-2.122 4.332-1.794 7.274Zm34.293-15.048c-3.636.696-6.328 3.972-6.299 5.277.004.145.01.389.776.389h.002c.107 0 .221-.006.343-.017 2.604-.246 4.633-2.511 5.178-5.649Zm-17.596-9.306c-2.139 2.78-2.642 5.994-1.063 7.44 1.21 1.108 2.426.735 3-.783.646-1.714.258-4.354-1.937-6.657Z" fill="#fff"/><defs><linearGradient id="a" x1="182.5" y1="-6.379" x2="182.5" y2="306.017" gradientUnits="userSpaceOnUse"><stop stop-color="#6D13FF"/><stop offset=".049" stop-color="#9859FF"/><stop offset=".898" stop-color="#9859FF"/><stop offset="1" stop-color="#6D13FF"/></linearGradient></defs></svg>