<svg width="365" height="294" fill="none" xmlns="http://www.w3.org/2000/svg"><rect y=".154" width="365" height="293" rx="18" fill="url(#a)"/><path d="M325.283 83.866c-1.93 0-3.566-.565-4.864-1.682a12.263 12.263 0 0 1-1.554-1.593c-2.813 1.97-7.009 3.005-12.223 3.005-.725 0-1.477-.019-2.258-.06-4.446-.232-7.5-2.62-8.47-6.584-2.33-.38-4.757-1.546-7.062-3.398-3.587-2.884-4.74-7.114-3.159-11.603 1.645-4.67 5.911-8.33 9.714-8.33.615 0 1.204.09 1.766.27.048-1.792.428-4.796 2.269-6.82 2.127-2.347 5.559-2.717 10.077-1.019 1.714.643 3.209 1.453 4.453 2.412 2.146-2.103 4.824-3.295 7.461-3.295 1.975 0 3.895.638 5.707 1.893 4.049 2.805 6.425 6.984 6.484 11.324 2.4.16 4.639 1.361 6.507 3.497 2.515 2.878 2.913 6.64 1.119 10.59-2.754 6.07-10.215 11.393-15.967 11.393Zm-5.059-4.407c.393.489.845.952 1.349 1.386.966.83 2.215 1.252 3.71 1.252 5.054 0 11.896-4.937 14.357-10.355 1.054-2.32 1.762-5.713-.842-8.693-1.567-1.794-3.342-2.767-5.279-2.896-.56 4.147-3.276 7.193-6.82 7.528a5.38 5.38 0 0 1-.508.024h-.002c-1.84 0-2.521-1.093-2.544-2.116-.055-2.414 3.677-6.494 8.21-7.135-.038-3.782-2.138-7.452-5.725-9.937-1.51-1.047-3.091-1.578-4.698-1.578-2.138 0-4.336.977-6.134 2.703 2.811 2.88 3.267 6.33 2.412 8.603-.607 1.605-1.852 2.604-3.255 2.604h-.002c-.885 0-1.782-.394-2.595-1.139-2.56-2.346-1.561-6.71.933-9.92-1.085-.819-2.392-1.517-3.895-2.082-3.776-1.417-6.512-1.248-8.145.551-2.193 2.416-1.787 6.917-1.782 6.962a.886.886 0 0 1-1.368.822 3.912 3.912 0 0 0-2.195-.654c-3.048 0-6.657 3.208-8.045 7.15-.774 2.197-1.465 6.37 2.598 9.635 1.874 1.506 3.811 2.502 5.664 2.92-.219-3.002.646-6.287 2.231-8.184.782-.938 1.681-1.434 2.598-1.434.661 0 1.643.266 2.566 1.537 1.588 2.186 1.902 4.609.864 6.645-1.066 2.091-3.335 3.363-6.098 3.428.702 2.209 2.461 4.462 6.691 4.683 5.972.299 10.525-.62 13.389-2.638-1.764-3.105-1.532-6.446-.446-8.496.645-1.218 1.561-1.916 2.509-1.916.654 0 1.84.336 2.442 2.588.816 3.051.033 5.98-2.145 8.152Zm-.295-8.97c-.166 0-.568.264-.945.974-.819 1.545-1 4.053.247 6.477 1.541-1.695 2.05-3.853 1.429-6.176-.278-1.04-.628-1.275-.731-1.275Zm-22.509 4.83c2.254.07 4.084-.887 4.889-2.463.724-1.424.463-3.174-.719-4.802-.268-.37-.683-.808-1.135-.808-.37 0-.811.283-1.241.798-1.161 1.39-2.122 4.332-1.794 7.274Zm34.292-15.05c-3.635.697-6.327 3.973-6.298 5.278.004.145.01.389.776.389h.002c.107 0 .221-.006.343-.017 2.604-.245 4.633-2.511 5.177-5.65Zm-17.595-9.305c-2.139 2.78-2.642 5.994-1.063 7.44 1.21 1.107 2.426.735 3-.783.646-1.714.258-4.354-1.937-6.657ZM309.581 203.708c-.651 0-1.268 0-2.971-6.784-5.746-1.106-6.233-1.76-6.421-2.011-.164-.221-.233-.624-.159-.888.103-.37.347-1.227 6.913-3.874 2.361-6.151 3.164-6.151 3.699-6.151.278 0 .662.199.828.424.425.568.807 2.042 1.387 4.399.182.734.399 1.62.525 2.015.346.154 1.101.425 1.728.65 3.385 1.213 4.258 1.625 4.415 2.437.061.306-.095.75-.328.959-.686.616-3.945 1.827-5.659 2.437-2.782 6.329-3.38 6.358-3.908 6.386l-.049.001Zm-7.132-9.558c1.151.33 3.231.802 5.046 1.141.34.062.613.32.696.657.465 1.881 1.071 4.024 1.508 5.258.638-1.149 1.595-3.166 2.372-4.947a.894.894 0 0 1 .517-.481c1.55-.544 3.298-1.214 4.397-1.693-.767-.324-1.801-.693-2.471-.934-1.93-.691-2.293-.841-2.541-1.176-.22-.294-.353-.779-.833-2.73-.18-.726-.453-1.837-.696-2.675-.572 1.095-1.365 2.939-1.984 4.57a.893.893 0 0 1-.5.51c-2.014.804-4.3 1.827-5.511 2.5ZM60.569 92.659h-.006a.884.884 0 0 1-.88-.89l.089-14.89c.003-.487.399-.879.884-.879h.006c.489.003.883.4.88.89l-.089 14.889a.885.885 0 0 1-.884.88Z" fill="#fff"/><path d="M54.565 89.412a.885.885 0 0 1-.506-1.61l12.295-8.573a.886.886 0 0 1 1.013 1.452L55.07 89.253a.882.882 0 0 1-.506.159Z" fill="#fff"/><path d="M65.364 90.035a.885.885 0 0 1-.642-.276l-9.297-9.825a.886.886 0 0 1 1.286-1.216l9.296 9.825a.886.886 0 0 1-.643 1.492Z" fill="#fff"/><path d="M52.885 85.056a.884.884 0 0 1-.009-1.77L67.2 83.15c.466.023.888.39.893.877a.884.884 0 0 1-.876.893l-14.323.136h-.008Z" fill="#fff"/><defs><linearGradient id="a" x1="182.5" y1="-6.379" x2="182.5" y2="306.017" gradientUnits="userSpaceOnUse"><stop stop-color="#6D13FF"/><stop offset=".049" stop-color="#9859FF"/><stop offset=".898" stop-color="#9859FF"/><stop offset="1" stop-color="#6D13FF"/></linearGradient></defs></svg>