<svg width="13" height="13" viewBox="0 0 13 13" fill="none" xmlns="http://www.w3.org/2000/svg">
<path d="M6.1166 12.2351C6.11457 12.2351 6.0922 12.2351 6.09085 12.2351C2.71776 12.2196 -0.0135045 9.46185 5.02343e-05 6.0908C0.0136049 2.73195 2.75775 0 6.1166 0C9.51544 0.0135547 12.2487 2.7699 12.2352 6.14298C12.2209 9.50116 9.47545 12.2351 6.1166 12.2351ZM6.13557 1.76889C3.72893 1.76889 1.77977 3.71127 1.76893 6.09758C1.75876 8.49405 3.70047 10.4534 6.09761 10.4656H6.1166C8.50426 10.4656 10.4554 8.52319 10.4656 6.13553C10.4758 3.73703 8.53339 1.77973 6.13557 1.76889Z" fill="white"/>
</svg>
