<svg width="35" height="23" viewBox="0 0 35 23" fill="none" xmlns="http://www.w3.org/2000/svg">
<path d="M24.5814 23C23.4036 23 22.4052 22.6655 21.6132 22.0049C21.2609 21.7114 20.9428 21.3953 20.6653 21.062C18.9486 22.2275 16.3878 22.8404 13.2066 22.8404C12.7637 22.8404 12.3051 22.8291 11.8286 22.8047C9.11562 22.6675 7.25168 21.2545 6.65986 18.9087C5.23843 18.6837 3.75703 17.9935 2.35048 16.8973C0.161471 15.1908 -0.541585 12.6877 0.422854 10.031C1.42658 7.26729 4.02999 5.10151 6.35052 5.10151C6.72604 5.10151 7.08542 5.15486 7.42827 5.26114C7.45763 4.20071 7.68964 2.42358 8.81289 1.22518C10.1107 -0.163315 12.205 -0.382298 14.9622 0.62278C16.0081 1.00299 16.9201 1.48267 17.6794 2.05019C18.9887 0.80567 20.6231 0.10019 22.2323 0.10019C23.4375 0.10019 24.6091 0.477593 25.715 1.21997C28.1856 2.88039 29.6352 5.35298 29.6712 7.92142C31.1356 8.01648 32.502 8.72717 33.6418 9.99094C35.177 11.6943 35.4193 13.9206 34.325 16.258C32.6443 19.8496 28.0913 23 24.5814 23ZM21.4941 20.3918C21.7344 20.6814 22.0098 20.9553 22.3175 21.212C22.9069 21.7037 23.6691 21.9532 24.5814 21.9532C27.6654 21.9532 31.8407 19.0318 33.3424 15.8253C33.9855 14.452 34.4177 12.4447 32.8288 10.6808C31.8726 9.61955 30.7895 9.04362 29.6075 8.96701C29.2659 11.4212 27.6083 13.224 25.4458 13.4221C25.3362 13.4321 25.2328 13.4365 25.1356 13.4365C25.1356 13.4365 25.1356 13.4365 25.1343 13.4365C24.0115 13.4365 23.5959 12.7892 23.5822 12.184C23.5483 10.7554 25.8258 8.34135 28.5918 7.96194C28.5686 5.72357 27.2874 3.55179 25.0984 2.08147C24.1769 1.46182 23.2121 1.14778 22.2315 1.14778C20.9271 1.14778 19.5859 1.72532 18.4883 2.74684C20.2038 4.45138 20.4821 6.49322 19.9602 7.83801C19.59 8.78773 18.8299 9.37891 17.9738 9.37891C17.9738 9.37891 17.9738 9.37891 17.9726 9.37891C17.4329 9.37891 16.8853 9.14589 16.389 8.70512C14.8274 7.31662 15.437 4.73373 16.9585 2.83467C16.2964 2.35018 15.499 1.93708 14.5817 1.60259C12.2778 0.763959 10.6078 0.864228 9.61149 1.92866C8.2736 3.35807 8.52133 6.02196 8.52422 6.04843C8.54407 6.24897 8.44317 6.44309 8.26492 6.54737C8.08667 6.65164 7.86128 6.64763 7.68924 6.53493C7.28849 6.27825 6.83853 6.1483 6.3501 6.1483C4.49029 6.1483 2.28763 8.04616 1.44064 10.3796C0.968349 11.679 0.546503 14.1484 3.02625 16.0812C4.16935 16.9719 5.35134 17.5619 6.48245 17.8094C6.34845 16.0322 6.87657 14.0883 7.84349 12.9657C8.32116 12.4106 8.86956 12.117 9.42912 12.117C9.83276 12.117 10.432 12.2746 10.9949 13.027C11.9639 14.3205 12.1558 15.7543 11.5222 16.9595C10.8716 18.1968 9.48701 18.9492 7.80131 18.9881C8.22935 20.2948 9.30255 21.6283 11.884 21.7591C15.528 21.936 18.3063 21.3921 20.0545 20.1977C18.978 18.3604 19.1194 16.3836 19.7824 15.1699C20.1757 14.4492 20.7344 14.0361 21.3134 14.0361C21.7121 14.0361 22.4362 14.2354 22.8031 15.5678C23.3014 17.3734 22.8237 19.1064 21.4941 20.3918ZM21.3146 15.0837C21.2133 15.0837 20.9676 15.2401 20.7377 15.6604C20.2381 16.5745 20.1273 18.0584 20.8886 19.4931C21.8291 18.49 22.1393 17.213 21.7605 15.8385C21.5909 15.2229 21.3771 15.0837 21.3146 15.0837ZM7.57922 17.9417C8.95433 17.9838 10.071 17.4171 10.5623 16.4846C11.004 15.642 10.8448 14.6064 10.1235 13.6431C9.96013 13.4241 9.70703 13.1646 9.43077 13.1646C9.20496 13.1646 8.93613 13.3322 8.67352 13.6371C7.96508 14.46 7.37905 16.2003 7.57922 17.9417ZM28.5049 9.0364C26.2865 9.4483 24.6438 11.3871 24.6616 12.1591C24.6637 12.2449 24.6678 12.3893 25.1352 12.3893C25.1364 12.3893 25.1364 12.3893 25.1364 12.3893C25.2017 12.3893 25.2712 12.3861 25.3453 12.3793C26.9346 12.2341 28.1724 10.8933 28.5049 9.0364ZM17.7679 3.52933C16.4627 5.17451 16.1558 7.07638 17.1194 7.93226C17.8576 8.5876 18.5996 8.36701 18.9499 7.46902C19.344 6.45472 19.107 4.89216 17.7679 3.52933Z" fill="white"/>
</svg>
