<svg width="784" height="677" viewBox="0 0 784 677" fill="none" xmlns="http://www.w3.org/2000/svg">
<path d="M748.443 661.224C748.209 663.151 748.021 664.68 747.885 665.787C746.583 665.824 744.702 665.877 742.277 665.944C737.217 666.083 729.79 666.286 720.322 666.536C701.386 667.038 674.289 667.732 641.641 668.503C576.346 670.045 488.854 671.896 400.065 673.129C311.272 674.363 221.199 674.98 150.734 674.055C115.498 673.592 85.1926 672.744 62.4127 671.398C51.0195 670.725 41.5432 669.929 34.2887 668.999C26.9098 668.054 22.1656 667.006 19.9772 665.967C19.2581 665.626 18.3527 664.836 17.3448 663.278C16.3498 661.74 15.3638 659.622 14.4113 656.895C12.5065 651.44 10.8486 643.879 9.43628 634.435C6.61489 615.571 4.83125 589.609 3.85737 558.9C1.91037 497.507 3.20787 417.455 5.80691 337.968C8.40558 258.493 12.3038 179.63 15.5526 120.633C17.1769 91.135 18.6388 66.6051 19.6946 49.4504C20.2224 40.873 20.6488 34.1396 20.9431 29.5508C21.0757 27.4841 21.1815 25.8525 21.2577 24.6834C22.4913 24.5907 24.2412 24.46 26.4773 24.2949C31.2994 23.939 38.3827 23.4234 47.4249 22.7851C65.5095 21.5084 91.4296 19.7406 122.769 17.7763C185.448 13.8477 269.796 9.13372 356.481 5.99121C443.175 2.84836 532.165 1.27897 604.143 3.63384C640.136 4.81144 671.823 6.96889 696.819 10.3904C709.318 12.1012 720.099 14.1223 728.887 16.4802C737.713 18.8483 744.36 21.5131 748.708 24.4303C752.898 27.2414 756.754 32.0968 760.22 39.0161C763.676 45.9148 766.659 54.6957 769.195 65.1374C774.268 86.0217 777.478 113.239 779.232 144.63C782.738 207.393 780.402 286.441 775.718 364.001C771.036 441.543 764.011 517.524 758.156 574.124C755.229 602.423 752.595 625.873 750.692 642.248C749.741 650.435 748.973 656.853 748.443 661.224Z" fill="url(#paint0_linear_1761_3701)" stroke="black" stroke-width="5"/>
<defs>
<linearGradient id="paint0_linear_1761_3701" x1="391.92" y1="0" x2="663.92" y2="677" gradientUnits="userSpaceOnUse">
<stop stop-color="#F1E9FF"/>
<stop offset="1" stop-color="#EEE3FF"/>
</linearGradient>
</defs>
</svg>
