<svg width="81" height="74" viewBox="0 0 81 74" fill="none" xmlns="http://www.w3.org/2000/svg">
<g clip-path="url(#clip0_326_3415)">
<rect x="-31.6445" y="-2.67383" width="114.549" height="80.6743" fill="#F7CC00"/>
<path d="M11.0584 18.8115C11.0932 18.7916 11.0103 18.8463 10.8164 18.9756C10.6225 19.1048 10.3689 19.2789 10.0622 19.4993C3.38265 24.8397 3.62961 31.874 5.86222 39.5597C8.12798 47.3614 10.6473 56.0382 15.2352 62.8438C15.4275 63.1272 15.5833 63.3493 15.701 63.5134C15.8186 63.6775 15.8667 63.7438 15.8435 63.7173C15.8153 63.6841 15.7242 63.5681 15.5733 63.3675C15.4225 63.167 15.2452 62.9267 15.0479 62.6416C10.4153 55.9139 7.84787 47.2735 5.55725 39.5199C3.29314 31.8557 3.06607 24.8828 9.80202 19.6253C10.112 19.4082 10.3937 19.2242 10.6374 19.0717C10.881 18.9175 11.0236 18.833 11.0584 18.8131V18.8115ZM4.91746 36.7851C6.36278 36.9094 7.12355 36.9624 8.72467 37.0436C9.00147 38.5188 9.17716 39.2945 9.60313 40.9354C8.04842 40.7779 7.31251 40.6851 5.91194 40.4729C5.42631 38.9132 5.22907 38.1773 4.91746 36.7851ZM14.1114 17.3363C14.1529 17.3181 14.0882 17.3827 13.9241 17.5336C13.7617 17.6844 13.5413 17.8833 13.2728 18.1336C7.05891 23.885 7.68046 32.3845 9.51197 39.9359C11.5391 48.2896 13.4733 57.2962 17.5209 64.9471C17.6849 65.2587 17.8159 65.504 17.912 65.6897C18.0082 65.8753 18.0446 65.9532 18.0181 65.93C17.9849 65.9018 17.9004 65.7808 17.7662 65.5653C17.6319 65.3482 17.4778 65.088 17.307 64.7747C13.2065 57.1902 11.2258 48.2133 9.17384 39.9044C7.31416 32.3779 6.69758 23.9248 12.9711 18.2479C13.2429 17.9993 13.4949 17.7905 13.7136 17.6181C13.9341 17.4457 14.0683 17.3512 14.1081 17.333L14.1114 17.3363Z" fill="#FF00B0"/>
<path d="M16.684 40.3014C17.4497 45.0086 18.1807 49.8219 18.8983 54.5821C19.3309 57.4479 19.7735 60.3203 20.2807 63.1761C20.6519 65.2678 20.9337 66.6203 21.0696 67.4723C21.2055 68.3242 21.1724 68.6093 20.9022 68.4319C20.6337 68.2562 20.1696 67.6463 19.5133 66.554C18.6017 65.0391 17.8541 63.4214 17.1514 61.817C15.9746 59.1352 15.0762 56.2711 14.2293 53.4567C12.9049 49.0495 11.7397 44.4649 10.732 40.0362C9.82867 36.0665 9.1027 31.7057 9.85851 27.7162C10.3243 25.2615 11.1116 22.8201 12.6149 20.7747C13.6226 19.4024 14.7696 18.0863 16.0989 16.9576C17.1282 16.0841 17.8657 15.5703 18.2403 15.4261C18.6149 15.2819 18.5718 15.5189 18.2536 16.2233C17.9354 16.9294 17.3851 18.0416 16.8563 19.7869C16.1271 22.1919 15.8304 24.6698 15.6862 27.1311C15.4326 31.4803 15.9829 35.9853 16.684 40.2997V40.3014ZM16.2862 40.2931C15.4873 35.4848 14.874 30.4262 15.3348 25.5897C15.5503 23.3372 15.9381 21.0847 16.5945 18.8819C16.9856 17.5675 17.0934 17.0935 16.6226 17.2427C16.1569 17.3902 15.2055 18.1377 13.9773 19.5615C12.3513 21.446 11.1861 23.783 10.5679 26.1797C9.3911 30.7378 10.0906 35.5958 11.0834 40.061C12.2022 45.0964 13.4834 50.3274 15.0762 55.3048C15.9464 58.0247 16.8878 60.7695 18.1425 63.3518C19.0111 65.1352 19.616 66.0419 19.9525 66.2308C20.2939 66.4214 20.2956 65.8446 20.0586 64.2568C19.6641 61.6181 19.2182 58.9728 18.8155 56.3341C17.9967 50.9871 17.1646 45.5788 16.2862 40.2931Z" fill="#FF00B0"/>
<path d="M19.8945 16.5776C19.8464 16.5908 19.8597 16.508 19.9426 16.3323C20.0238 16.1566 20.1547 15.9345 20.3354 15.6693C20.5177 15.4057 20.6934 15.1803 20.8592 14.9914C21.0249 14.8041 21.1326 14.703 21.1774 14.6864C22.8465 14.1245 23.7233 13.8428 25.5614 13.256C25.6111 13.2394 25.6012 13.3207 25.5332 13.4997C25.4653 13.6787 25.3575 13.9107 25.2117 14.1958C25.0476 14.5173 24.9067 14.7792 24.7807 14.9732C24.6548 15.1687 24.5669 15.2748 24.5139 15.2881C22.9724 15.7107 21.431 16.1384 19.8929 16.5759L19.8945 16.5776ZM24.731 69.9265C24.6896 69.91 24.6216 69.7823 24.5271 69.537C24.4327 69.2917 24.3398 69.0083 24.2503 68.6834C21.7442 59.5475 20.9023 49.9109 19.6542 40.5496C18.5387 32.1777 17.9503 22.8511 22.3741 15.2566C22.5233 15.2118 22.5978 15.1903 22.747 15.1455C18.3912 22.7997 18.9663 32.1429 20.0569 40.5479C21.2768 49.9441 22.084 59.6038 24.5321 68.7862C24.62 69.1127 24.6829 69.3862 24.7244 69.6116C24.7642 69.837 24.7675 69.9414 24.731 69.9265Z" fill="#FF00B0"/>
<path d="M30.3578 11.7312C30.4192 11.7113 30.4258 11.8042 30.3794 12.013C30.333 12.2218 30.2468 12.497 30.1225 12.8401C27.0247 21.449 27.2982 31.054 27.9711 40.0441C28.7252 50.1066 28.9192 60.2453 30.3197 70.2515C30.3694 70.6443 30.3976 70.9625 30.4009 71.2095C30.4059 71.4565 30.386 71.5725 30.3396 71.5625C30.2833 71.5509 30.2186 71.4167 30.1457 71.1565C30.0744 70.8962 30.0081 70.573 29.9501 70.1802C28.4899 60.2139 28.2645 50.1016 27.4821 40.0723C26.7843 31.1186 26.4993 21.5236 29.6766 12.971C29.8042 12.6296 29.9352 12.3428 30.0661 12.1091C30.1971 11.8738 30.2949 11.7495 30.3562 11.7296L30.3578 11.7312ZM27.4457 36.7424C29.4363 36.5982 31.4269 36.4259 33.4126 36.227C33.4556 37.9971 33.4871 38.9154 33.5717 40.8248C31.6142 40.9856 29.6551 41.1165 27.6926 41.2176C27.56 39.3546 27.5103 38.4612 27.444 36.7408L27.4457 36.7424ZM35.4645 10.0821C35.5308 10.0605 35.554 10.1566 35.5391 10.3787C35.5242 10.5992 35.4728 10.8892 35.3883 11.2522C33.2352 20.5042 33.4126 30.2037 33.7855 39.6314C34.1982 50.0652 34.0871 60.5205 34.8347 70.941C34.8579 71.3504 34.8595 71.6819 34.8413 71.9421C34.8231 72.2023 34.7883 72.325 34.7352 72.3184C34.6689 72.3101 34.6076 72.1725 34.5496 71.904C34.4916 71.6355 34.4452 71.299 34.4137 70.8896C33.6098 60.5039 33.6927 50.0784 33.2551 39.6762C32.859 30.2849 32.67 20.5987 34.9109 11.3981C34.9988 11.0368 35.0982 10.7334 35.2059 10.4848C35.312 10.2362 35.3999 10.1019 35.4662 10.0804L35.4645 10.0821Z" fill="#FF00B0"/>
<path d="M44.3555 38.6938C44.3472 44.3359 44.0141 50.0144 43.6196 55.6398C43.371 59.1669 43.129 62.7487 42.6168 66.2261C42.3417 68.0973 42.0782 70.0581 41.4533 71.8631C41.0389 73.0631 40.5798 73.5902 40.0627 73.5471C39.5439 73.504 39.0367 72.8974 38.5461 71.6543C37.8384 69.8609 37.5168 67.8951 37.2052 66.0222C36.6483 62.6724 36.4262 59.1868 36.2223 55.7674C35.9008 50.3475 35.8759 44.8613 35.6952 39.4463C35.5278 34.4275 35.4881 29.3109 35.9886 24.3236C36.3019 21.2026 36.7063 17.9887 37.5632 14.9804C38.0737 13.1887 38.6273 11.3556 39.4991 9.67322C40.1323 8.45167 40.6991 7.79034 41.2328 7.63122C41.7666 7.4721 42.1925 7.84337 42.5489 8.83123C43.1025 10.3677 43.2914 12.0815 43.4903 13.6793C43.8765 16.7688 44.0091 19.9644 44.1367 23.102C44.3472 28.2816 44.3655 33.5043 44.3572 38.6922L44.3555 38.6938ZM43.8367 38.7336C43.8334 32.896 43.8202 26.9971 43.4704 21.1827C43.2947 18.2722 43.1356 15.2788 42.5025 12.4296C42.1063 10.6478 41.6025 9.95168 40.9378 10.1274C40.2815 10.3014 39.577 11.2975 38.8328 13.2865C37.7522 16.1705 37.2218 19.2368 36.8058 22.2617C36.0301 27.8954 36.0682 33.7148 36.2439 39.395C36.4328 45.5392 36.4096 51.7746 36.9035 57.9139C37.1654 61.1658 37.4406 64.4874 38.2511 67.6614C38.7881 69.7631 39.3931 70.7327 40.0129 70.7725C40.6411 70.8139 41.1782 69.9123 41.6489 67.8222C42.3815 64.5736 42.6599 61.1907 42.9417 57.8757C43.4804 51.5392 43.84 45.1 43.8367 38.7336Z" fill="#FF00B0"/>
<path d="M45.5448 9.61299C45.4867 9.62459 45.437 9.50857 45.3972 9.27155C45.3575 9.03454 45.3425 8.73951 45.3492 8.39144C45.3558 8.04337 45.384 7.75165 45.4304 7.50966C45.4768 7.26933 45.5282 7.14336 45.5845 7.13176C47.1873 6.79032 48.8464 6.53176 50.479 6.3859C50.5304 6.38093 50.5884 6.49364 50.6498 6.72402C50.7127 6.95607 50.7608 7.24613 50.7923 7.59917C50.8288 7.9953 50.8354 8.31354 50.8138 8.54392C50.7923 8.77597 50.7542 8.89365 50.6995 8.89862C48.9658 9.04448 47.2602 9.32293 45.5464 9.61299H45.5448ZM46.395 73.1289C46.342 73.1289 46.3088 72.9913 46.2923 72.7112C46.2757 72.4294 46.279 72.0979 46.3006 71.7117C47.479 50.584 48.6111 29.438 47.9315 8.27044C48.0989 8.24558 48.1818 8.23398 48.3475 8.21077C49.2044 29.3849 47.9381 50.5773 46.6586 71.7067C46.6354 72.0946 46.5972 72.4261 46.5442 72.7079C46.4912 72.9896 46.4431 73.1289 46.395 73.1289Z" fill="#FF00B0"/>
<path d="M54.9669 6.24025C55.02 6.24191 55.0912 6.36788 55.1791 6.62478C55.2669 6.88003 55.3515 7.20158 55.426 7.59606C57.3437 17.5226 56.9377 27.9448 56.2581 37.9775C55.5106 49.0096 54.1763 60.1759 52.4807 71.102C52.4094 71.5313 52.3365 71.8827 52.2619 72.1661C52.189 72.4478 52.1343 72.5904 52.0962 72.597C52.0498 72.607 52.0365 72.4777 52.0548 72.2059C52.073 71.934 52.1144 71.586 52.1791 71.1567C53.8133 60.2108 55.1194 49.0394 55.8354 37.9957C56.4868 27.9465 56.878 17.5359 55.0432 7.58446C54.9719 7.18998 54.9271 6.86843 54.9122 6.61484C54.8973 6.36125 54.9122 6.23859 54.9669 6.24025ZM56.2051 34.4388C57.7879 34.3774 59.3725 34.3327 60.9554 34.3029C60.8294 35.8642 60.6769 37.4272 60.5012 38.9836C58.9515 39.0581 57.4034 39.1344 55.8537 39.2139C55.9846 37.6244 56.1023 36.0316 56.2051 34.4388ZM58.9697 6.67119C59.0178 6.67948 59.0973 6.80711 59.2084 7.05904C59.3194 7.30932 59.4338 7.62258 59.5465 8.00546C62.3874 17.5028 61.8073 28.0525 60.8128 37.7852C59.7089 48.5886 58.0482 59.6472 55.6349 70.2418C55.5354 70.6561 55.441 70.9959 55.3531 71.271C55.2653 71.5462 55.2056 71.6871 55.1724 71.6987C55.1327 71.7152 55.1343 71.5959 55.1741 71.339C55.2155 71.0804 55.2818 70.7473 55.3747 70.3329C57.7233 59.7003 59.3559 48.6284 60.4299 37.7985C61.3979 28.0327 61.9631 17.4895 59.2018 7.94579C59.0924 7.56291 59.0145 7.25462 58.9697 7.01429C58.925 6.77396 58.9233 6.66125 58.9697 6.66954V6.67119Z" fill="#FF00B0"/>
<path d="M67.628 37.4997C66.7313 42.8152 65.3738 48.2235 64.0097 53.4976C63.1545 56.8026 62.2677 60.1523 61.1307 63.3578C60.4859 65.1728 59.8097 67.0076 58.9727 68.7595C58.3859 69.9861 57.9782 70.6524 57.7362 70.8281C57.4926 71.0038 57.4495 70.654 57.5655 69.6546C57.7627 67.9739 58.0379 66.2866 58.2832 64.6059C58.7787 61.228 59.2544 57.8435 59.7368 54.4606C60.5307 48.8815 61.5185 43.2892 62.1484 37.7251C62.7202 32.6731 63.1213 27.5134 63.1346 22.4233C63.1429 19.3206 63.0766 16.1647 62.7484 13.0769C62.581 11.5006 62.3572 9.9078 62.1666 8.33652C62.0522 7.3901 62.1136 7.03872 62.4451 7.17463C62.7766 7.31054 63.3335 7.91055 64.0909 9.02271C65.1434 10.5691 65.9307 12.2929 66.5937 13.9918C67.7026 16.8327 68.2031 19.962 68.4832 23.02C68.9225 27.8051 68.4252 32.7759 67.628 37.5013V37.4997ZM67.3064 37.5146C68.1882 32.1444 68.702 26.451 67.9197 21.0609C67.4921 18.1139 66.8075 15.1752 65.523 12.4271C64.6478 10.5526 63.9152 9.64094 63.4926 9.50172C63.0749 9.36415 63.0335 10.0371 63.1578 11.7973C63.36 14.683 63.5158 17.5902 63.5506 20.4758C63.6202 26.2107 63.1777 32.03 62.5163 37.7085C61.7871 43.9704 60.6484 50.2754 59.7583 56.5622C59.3174 59.6816 58.8484 62.8043 58.4771 65.9302C58.255 67.8082 58.2633 68.4977 58.5683 68.3153C58.8765 68.133 59.4252 67.1269 60.2174 65.0849C61.4058 62.0203 62.3224 58.8396 63.176 55.6738C64.7854 49.7136 66.3153 43.5478 67.3064 37.5113V37.5146Z" fill="#FF00B0"/>
<path d="M66.5762 11.1447C66.5414 11.1282 66.4586 11.0055 66.3276 10.7801C66.1967 10.5563 66.0525 10.2928 65.8901 9.99611C65.7276 9.69943 65.5983 9.46407 65.5055 9.28174C65.4127 9.10108 65.3796 9.02318 65.4127 9.04307C66.6061 9.75909 67.1547 10.1735 68.1508 11.1083C68.179 11.1331 68.2785 11.2392 68.4442 11.4265C68.6116 11.6155 68.7989 11.8342 68.9995 12.0912C69.2249 12.3812 69.3823 12.6066 69.4785 12.7591C69.5746 12.9116 69.6044 12.9796 69.5746 12.9564C68.474 12.1342 67.874 11.7713 66.5812 11.1447H66.5762ZM60.9806 67.4141C60.9558 67.4456 60.9889 67.3644 61.0817 67.1672C61.1746 66.9699 61.2906 66.723 61.4331 66.4197C65.5453 57.5671 67.9006 47.1483 69.7967 37.6079C71.4906 29.0819 72.3243 18.8901 67.5641 11.1514C67.6602 11.2127 67.7083 11.2442 67.8028 11.3088C72.6359 18.958 71.7956 29.125 70.0801 37.5913C68.1608 47.072 65.7807 57.461 61.6105 66.2257C61.4679 66.5241 61.332 66.7876 61.206 67.023C61.0801 67.2567 61.0055 67.386 60.9823 67.4141H60.9806Z" fill="#FF00B0"/>
<path d="M11.6174 22.2328C11.76 22.1931 11.8263 22.2312 11.8213 22.3538C11.8163 22.4765 11.7401 22.6522 11.5992 22.8826C8.22127 28.3804 9.24393 35.229 10.681 41.1611C12.36 48.0976 14.2495 55.0806 16.7954 61.7519C16.8981 62.032 16.9545 62.2425 16.9628 62.3834C16.971 62.5243 16.9313 62.564 16.8401 62.5027C16.7257 62.4265 16.5981 62.2773 16.4539 62.0519C16.3097 61.8265 16.1771 61.5762 16.0561 61.2944C13.3926 54.764 11.397 47.8888 9.64835 41.06C8.15995 35.2523 7.07762 28.4732 10.5799 23.1395C10.7274 22.9157 10.9031 22.7201 11.102 22.5478C11.3009 22.3754 11.4732 22.2693 11.6158 22.2295L11.6174 22.2328ZM9.49752 38.8655C14.2081 39.1788 18.9186 39.1556 23.6357 39.0031C23.7286 40.3075 23.7866 40.9821 23.9324 42.3744C19.3064 42.4274 14.6871 42.3429 10.0843 41.8407C9.8025 40.6026 9.68482 40.0075 9.49918 38.8639L9.49752 38.8655ZM25.0363 18.9494C25.2302 18.9046 25.3595 18.961 25.4291 19.1218C25.4987 19.2825 25.4904 19.5096 25.4059 19.803C23.3987 26.8025 23.7468 34.334 24.5241 41.4926C25.3943 49.4982 26.0457 57.5286 27.2125 65.4994C27.2474 65.8375 27.2308 66.1077 27.1645 66.3083C27.0982 66.5088 26.9971 66.5917 26.8612 66.5602C26.6921 66.5221 26.5413 66.3812 26.4103 66.1408C26.2794 65.8989 26.1833 65.6105 26.1252 65.2723C24.8357 57.396 24.0849 49.4485 23.1385 41.5274C22.2948 34.4683 21.902 26.9865 24.0286 20.103C24.1181 19.8129 24.2623 19.5627 24.4545 19.3455C24.6468 19.1267 24.8407 18.9975 25.0346 18.9527L25.0363 18.9494Z" fill="#6D13FF" stroke="black" stroke-width="2.22857" stroke-miterlimit="10"/>
<path d="M55.0058 39.3426C54.7787 43.8741 54.139 48.5184 53.166 52.967C52.4865 56.0681 51.676 59.1693 50.4097 62.1179C49.5909 64.0256 48.4389 65.8953 46.9356 67.2942C45.8864 68.2704 43.977 68.9301 42.5649 68.8572C41.0284 68.7776 39.0162 68.0351 37.8179 67.0273C36.2284 65.6931 34.9604 63.9013 34.0355 62.0383C32.7294 59.4096 31.9256 56.5024 31.2957 53.6615C30.4007 49.6239 30.0145 45.3543 29.7195 41.262C29.4427 37.4266 29.4112 33.389 30.2946 29.6299C30.9327 26.9116 31.9073 24.1818 33.4455 21.7867C34.6919 19.8442 36.2582 17.9613 38.0615 16.6138C39.7704 15.3358 41.2903 14.5519 43.3588 13.9436C44.7958 13.5209 46.8975 13.801 48.1986 14.5519C49.8826 15.5231 51.0992 17.1756 52.0224 18.7734C53.3997 21.1552 54.0511 24.0707 54.5334 26.8453C55.2395 30.9194 55.2147 35.2139 55.0075 39.3426H55.0058ZM53.6119 39.4172C53.8025 34.7349 53.8141 29.7707 52.6025 25.2591C51.8782 22.5591 50.9019 19.821 48.8367 17.779C47.3599 16.3187 45.25 15.7867 43.2245 16.2143C40.7334 16.7397 38.7825 18.1834 37.0571 19.869C34.9339 21.9425 33.3676 24.9011 32.4676 27.805C31.1267 32.131 30.9858 36.7338 31.2642 41.1625C31.5593 45.8664 31.9405 50.8339 33.2565 55.3836C34.0736 58.2096 35.1609 61.2328 37.1284 63.5151C38.4958 65.103 40.4333 66.2516 42.5781 66.3262C44.6433 66.3975 46.445 65.2257 47.6384 63.6328C49.5146 61.1317 50.5389 57.893 51.3428 54.9179C52.6903 49.9289 53.403 44.5753 53.6135 39.4172H53.6119Z" fill="#6D13FF" stroke="black" stroke-width="2.22857" stroke-miterlimit="10"/>
<path d="M57.4843 15.2217C57.3186 15.2217 57.1611 15.109 57.0169 14.8853C56.8727 14.6632 56.7849 14.3914 56.7534 14.0731C56.7219 13.7549 56.7567 13.4913 56.8578 13.2775C56.9573 13.0654 57.0882 12.9593 57.249 12.961C61.5866 13.1134 65.8314 13.5891 69.8656 15.2963C69.98 15.3444 70.1143 15.4803 70.2634 15.6974C70.4143 15.9162 70.5369 16.1599 70.6264 16.43C70.7275 16.735 70.7574 16.9604 70.7225 17.0997C70.6861 17.2405 70.6065 17.2919 70.4889 17.2488C66.1844 15.8549 62.0009 15.3378 57.4843 15.2201V15.2217ZM59.6009 66.6033C59.4849 66.6464 59.417 66.5602 59.3971 66.3447C59.3772 66.1276 59.4004 65.8541 59.4683 65.5243C62.7451 49.2778 66.8441 31.4368 63.8457 14.8571C64.275 14.9234 64.4872 14.9582 64.9048 15.0345C68.1187 31.3506 63.8092 49.3208 60.2573 65.2558C60.1844 65.5823 60.0816 65.8773 59.9507 66.1458C59.8197 66.4143 59.702 66.5652 59.5993 66.6033H59.6009Z" fill="#6D13FF" stroke="black" stroke-width="2.22857" stroke-miterlimit="10"/>
</g>
<defs>
<clipPath id="clip0_326_3415">
<rect width="80.6743" height="78" fill="white"/>
</clipPath>
</defs>
</svg>
