<svg width="255" height="76" viewBox="0 0 255 76" fill="none" xmlns="http://www.w3.org/2000/svg">
<path d="M52.9969 44.7792C48.5432 43.8524 45.0166 40.3093 44.2303 35.6693L44.2126 35.5871C43.9016 37.7341 43.4029 40.5498 42.4699 44.0108C39.5066 55.0096 36.2499 49.8357 36.1619 49.2961L34.5482 39.6054C34.0435 36.5433 31.5497 34.1206 28.4573 33.886C24.9835 33.6279 21.9321 36.0564 21.3688 39.4411L19.7258 49.2961C19.6378 49.8357 18.8632 49.8416 18.7693 49.3019L17.1908 45.6767C16.7977 43.4887 14.6559 41.6292 12.4378 41.6937C9.59189 41.7699 7.46184 44.3686 7.97235 47.1843L9.96742 53.2029C10.6481 56.9865 13.94 59.7376 17.7835 59.7376H20.3537C23.2994 59.7376 25.8167 57.6024 26.2978 54.6987L27.935 44.8261L29.5722 54.6928C30.0534 57.6024 32.5707 59.7376 35.5164 59.7376H37.8049C40.8093 59.7376 46.2782 53.6897 48.5549 49.0614C49.4821 47.1784 51.4654 45.8175 52.9852 44.7675L52.9969 44.7792Z" fill="#F7CC00"/>
<path d="M52.9969 44.7792C48.5432 43.8524 45.0166 40.3093 44.2303 35.6693L44.2126 35.5871C43.9016 37.7341 43.4029 40.5498 42.4699 44.0108C39.5066 55.0096 36.2499 49.8357 36.1619 49.2961L34.5482 39.6054C34.0435 36.5433 31.5497 34.1206 28.4573 33.886C24.9835 33.6279 21.9321 36.0564 21.3688 39.4411L19.7258 49.2961C19.6378 49.8357 18.8632 49.8416 18.7693 49.3019L17.1908 45.6767C16.7977 43.4887 14.6559 41.6292 12.4378 41.6937C9.59189 41.7699 7.46184 44.3686 7.97235 47.1843L9.96742 53.2029C10.6481 56.9865 13.94 59.7376 17.7835 59.7376H20.3537C23.2994 59.7376 25.8167 57.6024 26.2978 54.6987L27.935 44.8261L29.5722 54.6928C30.0534 57.6024 32.5707 59.7376 35.5164 59.7376H37.8049C40.8093 59.7376 46.2782 53.6897 48.5549 49.0614C49.4821 47.1784 51.4654 45.8175 52.9852 44.7675L52.9969 44.7792Z" fill="black" fill-opacity="0.05"/>
<path d="M84.0915 26.3245V28.6416C84.0915 29.6564 83.71 30.6302 83.0235 31.381L64.0759 48.8794C63.6652 49.3252 63.982 50.0526 64.5923 50.0526L76.8504 46.1458C75.2015 50.1523 75.5536 55.0915 77.9595 58.6405C77.9419 58.6405 75.8705 59.1626 75.583 59.1978C74.9669 59.2682 74.3155 59.2154 73.6759 59.1039C70.5894 55.8659 65.6603 53.672 60.2207 53.1616H60.121C59.6985 53.144 59.2701 53.1382 58.83 53.1382C55.4677 53.1382 52.4516 53.5429 49.8052 54.3583C48.4145 52.7393 49.4179 50.956 50.8614 49.4895C51.8472 48.4864 53.0442 47.6065 54.2471 46.8732C56.7938 45.3305 59.6457 44.3391 62.1043 42.6379C64.6275 40.8899 66.2119 37.951 66.517 34.9065C66.8104 31.95 65.9537 29.0522 64.1053 26.7469C62.2862 24.4767 59.7043 23.016 56.8408 22.6289L56.7469 22.6172H56.6472C56.4066 22.5996 56.1543 22.5937 55.9078 22.5937C52.833 22.5937 50.2453 23.4501 48.1974 25.1454C46.5133 26.1778 44.8937 27.4449 42.6991 28.3776C42.4292 28.4891 42.124 28.6005 41.8658 28.4715C41.2966 28.1723 42.3235 26.9404 42.4585 26.5943C42.7636 25.8083 42.8869 24.9636 42.969 24.1306C43.1392 22.4529 43.0923 20.6931 43.8199 19.1269C44.882 16.8391 47.5401 15.5662 49.9988 15.8419L80.4945 22.2887C82.5541 22.5174 84.1091 24.2538 84.1091 26.3245H84.0915Z" fill="#F7CC00"/>
<path d="M84.0915 26.3245V28.6416C84.0915 29.6564 83.71 30.6302 83.0235 31.381L64.0759 48.8794C63.6652 49.3252 63.982 50.0526 64.5923 50.0526L76.8504 46.1458C75.2015 50.1523 75.5536 55.0915 77.9595 58.6405C77.9419 58.6405 75.8705 59.1626 75.583 59.1978C74.9669 59.2682 74.3155 59.2154 73.6759 59.1039C70.5894 55.8659 65.6603 53.672 60.2207 53.1616H60.121C59.6985 53.144 59.2701 53.1382 58.83 53.1382C55.4677 53.1382 52.4516 53.5429 49.8052 54.3583C48.4145 52.7393 49.4179 50.956 50.8614 49.4895C51.8472 48.4864 53.0442 47.6065 54.2471 46.8732C56.7938 45.3305 59.6457 44.3391 62.1043 42.6379C64.6275 40.8899 66.2119 37.951 66.517 34.9065C66.8104 31.95 65.9537 29.0522 64.1053 26.7469C62.2862 24.4767 59.7043 23.016 56.8408 22.6289L56.7469 22.6172H56.6472C56.4066 22.5996 56.1543 22.5937 55.9078 22.5937C52.833 22.5937 50.2453 23.4501 48.1974 25.1454C46.5133 26.1778 44.8937 27.4449 42.6991 28.3776C42.4292 28.4891 42.124 28.6005 41.8658 28.4715C41.2966 28.1723 42.3235 26.9404 42.4585 26.5943C42.7636 25.8083 42.8869 24.9636 42.969 24.1306C43.1392 22.4529 43.0923 20.6931 43.8199 19.1269C44.882 16.8391 47.5401 15.5662 49.9988 15.8419L80.4945 22.2887C82.5541 22.5174 84.1091 24.2538 84.1091 26.3245H84.0915Z" fill="black" fill-opacity="0.05"/>
<path d="M89.1604 40.9133C84.7771 40.6259 81.714 42.6145 80.0182 45.4595C77.8177 49.1317 77.894 54.241 80.341 57.7371C81.984 60.0836 84.6832 61.7026 88.4857 61.6674C92.5052 61.7612 95.3452 59.8841 96.9765 57.2268C95.2044 53.584 95.2455 48.9733 97.0587 45.3246C95.5448 42.8139 92.9159 41.0131 89.1545 40.9133H89.1604ZM88.4857 57.3793C85.1292 57.4438 83.1869 55.2382 82.6705 52.6806C82.2539 50.6216 82.7585 48.3397 84.1727 46.8322C84.1727 46.8322 84.1785 46.8322 84.1785 46.8263C85.1702 45.7821 86.602 45.1017 88.4857 45.131C96.4074 44.9726 96.4484 57.5025 88.4857 57.3852V57.3793Z" fill="#F7CC00"/>
<path d="M89.1604 40.9133C84.7771 40.6259 81.714 42.6145 80.0182 45.4595C77.8177 49.1317 77.894 54.241 80.341 57.7371C81.984 60.0836 84.6832 61.7026 88.4857 61.6674C92.5052 61.7612 95.3452 59.8841 96.9765 57.2268C95.2044 53.584 95.2455 48.9733 97.0587 45.3246C95.5448 42.8139 92.9159 41.0131 89.1545 40.9133H89.1604ZM88.4857 57.3793C85.1292 57.4438 83.1869 55.2382 82.6705 52.6806C82.2539 50.6216 82.7585 48.3397 84.1727 46.8322C84.1727 46.8322 84.1785 46.8322 84.1785 46.8263C85.1702 45.7821 86.602 45.1017 88.4857 45.131C96.4074 44.9726 96.4484 57.5025 88.4857 57.3852V57.3793Z" fill="black" fill-opacity="0.05"/>
<path d="M50.3161 41.1601C51.654 42.0693 53.2383 42.6207 54.9518 42.6852C55.0691 42.6911 55.1865 42.697 55.3038 42.697C55.6324 42.697 55.9728 42.6794 56.3131 42.6383C60.4559 42.1807 63.7713 38.8254 64.1879 34.6781C64.6749 29.7682 61.1542 25.5564 56.5068 24.9287C56.3014 24.917 56.096 24.917 55.8848 24.917C53.0681 24.917 50.8032 25.7558 49.1015 27.4277C47.7812 28.7241 46.9714 30.3607 46.6839 32.3199C46.5959 32.8948 46.5489 33.4873 46.5489 34.1149V34.4258L46.5078 35.2823C46.7836 36.9072 47.5053 38.3913 48.544 39.588C49.0603 40.1863 49.653 40.7201 50.3102 41.1601H50.3161ZM50.1107 33.0884C50.41 30.7537 52.2994 28.8648 54.6408 28.5715C54.8696 28.5422 55.0985 28.5305 55.3215 28.5305C58.4432 28.5305 60.9312 31.2582 60.5263 34.4552C60.2329 36.7957 58.3434 38.6846 56.008 38.9838C55.7732 39.0131 55.5444 39.0248 55.3215 39.0248C52.1938 39.0248 49.7058 36.2912 50.1166 33.0884H50.1107Z" fill="#F7CC00"/>
<path d="M50.3161 41.1601C51.654 42.0693 53.2383 42.6207 54.9518 42.6852C55.0691 42.6911 55.1865 42.697 55.3038 42.697C55.6324 42.697 55.9728 42.6794 56.3131 42.6383C60.4559 42.1807 63.7713 38.8254 64.1879 34.6781C64.6749 29.7682 61.1542 25.5564 56.5068 24.9287C56.3014 24.917 56.096 24.917 55.8848 24.917C53.0681 24.917 50.8032 25.7558 49.1015 27.4277C47.7812 28.7241 46.9714 30.3607 46.6839 32.3199C46.5959 32.8948 46.5489 33.4873 46.5489 34.1149V34.4258L46.5078 35.2823C46.7836 36.9072 47.5053 38.3913 48.544 39.588C49.0603 40.1863 49.653 40.7201 50.3102 41.1601H50.3161ZM50.1107 33.0884C50.41 30.7537 52.2994 28.8648 54.6408 28.5715C54.8696 28.5422 55.0985 28.5305 55.3215 28.5305C58.4432 28.5305 60.9312 31.2582 60.5263 34.4552C60.2329 36.7957 58.3434 38.6846 56.008 38.9838C55.7732 39.0131 55.5444 39.0248 55.3215 39.0248C52.1938 39.0248 49.7058 36.2912 50.1166 33.0884H50.1107Z" fill="black" fill-opacity="0.05"/>
<path d="M98.68 40.7716C98.5744 41.3231 98.4864 41.8803 98.4512 42.4728C98.5803 42.4376 98.6037 42.3613 98.6389 42.3085C99.1905 41.4932 99.8184 40.7599 100.611 40.1733C101.714 39.3579 102.975 38.959 104.29 38.6892C105.364 38.4663 106.449 38.3314 107.488 37.9618C108.039 37.7624 108.556 37.516 108.961 37.0819C110.521 35.4218 109.776 32.8994 107.564 32.3304C106.261 31.9961 105.006 32.1955 103.797 32.6882C102.16 33.357 101.062 34.6064 100.235 36.1199C99.4369 37.5747 98.9734 39.1468 98.6683 40.7716H98.68Z" fill="#F7CC00"/>
<path d="M98.68 40.7716C98.5744 41.3231 98.4864 41.8803 98.4512 42.4728C98.5803 42.4376 98.6037 42.3613 98.6389 42.3085C99.1905 41.4932 99.8184 40.7599 100.611 40.1733C101.714 39.3579 102.975 38.959 104.29 38.6892C105.364 38.4663 106.449 38.3314 107.488 37.9618C108.039 37.7624 108.556 37.516 108.961 37.0819C110.521 35.4218 109.776 32.8994 107.564 32.3304C106.261 31.9961 105.006 32.1955 103.797 32.6882C102.16 33.357 101.062 34.6064 100.235 36.1199C99.4369 37.5747 98.9734 39.1468 98.6683 40.7716H98.68Z" fill="black" fill-opacity="0.05"/>
<path d="M96.4241 38.8548C96.5884 39.0953 96.7352 39.3593 96.9581 39.5528C96.9875 39.5235 97.0051 39.5118 97.0109 39.4942C97.0109 39.4472 97.0109 39.3944 97.0109 39.3475C96.9757 38.5145 97.1283 37.7285 97.5273 36.9894C98.032 36.0449 98.7831 35.3 99.4814 34.5139C100.397 33.4874 100.491 32.2555 99.7395 31.094C98.5307 29.2286 96.1542 29.6979 95.2682 31.0705C94.5347 32.2085 94.435 33.458 94.6521 34.7485C94.9044 36.2561 95.5733 37.5994 96.4241 38.8548Z" fill="#F7CC00"/>
<path d="M96.4241 38.8548C96.5884 39.0953 96.7352 39.3593 96.9581 39.5528C96.9875 39.5235 97.0051 39.5118 97.0109 39.4942C97.0109 39.4472 97.0109 39.3944 97.0109 39.3475C96.9757 38.5145 97.1283 37.7285 97.5273 36.9894C98.032 36.0449 98.7831 35.3 99.4814 34.5139C100.397 33.4874 100.491 32.2555 99.7395 31.094C98.5307 29.2286 96.1542 29.6979 95.2682 31.0705C94.5347 32.2085 94.435 33.458 94.6521 34.7485C94.9044 36.2561 95.5733 37.5994 96.4241 38.8548Z" fill="black" fill-opacity="0.05"/>
<path d="M108.666 40.9121C104.353 40.6247 101.319 42.5546 99.6 45.3293C99.4357 45.605 99.2773 45.8807 99.1306 46.1681C98.9487 46.5377 98.7844 46.9189 98.6494 47.3061C97.734 49.8285 97.7047 52.7205 98.5849 55.2429C98.7199 55.6124 98.8666 55.9761 99.0367 56.3281C99.1834 56.639 99.3477 56.9323 99.5237 57.2256C101.114 59.8418 103.931 61.6896 107.997 61.6603C121.135 61.9595 121.663 41.2524 108.672 40.9004L108.666 40.9121ZM107.997 57.3781C100.075 57.5365 100.034 45.0066 107.997 45.1239C115.919 44.9656 115.966 57.4954 107.997 57.3781Z" fill="#F7CC00"/>
<path d="M108.666 40.9121C104.353 40.6247 101.319 42.5546 99.6 45.3293C99.4357 45.605 99.2773 45.8807 99.1306 46.1681C98.9487 46.5377 98.7844 46.9189 98.6494 47.3061C97.734 49.8285 97.7047 52.7205 98.5849 55.2429C98.7199 55.6124 98.8666 55.9761 99.0367 56.3281C99.1834 56.639 99.3477 56.9323 99.5237 57.2256C101.114 59.8418 103.931 61.6896 107.997 61.6603C121.135 61.9595 121.663 41.2524 108.672 40.9004L108.666 40.9121ZM107.997 57.3781C100.075 57.5365 100.034 45.0066 107.997 45.1239C115.919 44.9656 115.966 57.4954 107.997 57.3781Z" fill="black" fill-opacity="0.05"/>
<path d="M10.7299 39.6871C8.05997 39.6871 5.89471 37.5226 5.89471 34.8535H5.25513C5.25513 37.5226 3.08983 39.6871 0.419922 39.6871V40.3265C3.08983 40.3265 5.25513 42.4911 5.25513 45.1601H5.89471C5.89471 42.4911 8.05997 40.3265 10.7299 40.3265V39.6871Z" fill="#F7CC00"/>
<path d="M10.7299 39.6871C8.05997 39.6871 5.89471 37.5226 5.89471 34.8535H5.25513C5.25513 37.5226 3.08983 39.6871 0.419922 39.6871V40.3265C3.08983 40.3265 5.25513 42.4911 5.25513 45.1601H5.89471C5.89471 42.4911 8.05997 40.3265 10.7299 40.3265V39.6871Z" fill="black" fill-opacity="0.05"/>
<path d="M16.9566 42.5859H17.2735C17.2735 41.2543 18.3532 40.1691 19.6911 40.1691V39.8524C18.3591 39.8524 17.2735 38.773 17.2735 37.4355H16.9566C16.9566 38.7671 15.877 39.8524 14.5391 39.8524V40.1691C15.8711 40.1691 16.9566 41.2485 16.9566 42.5859Z" fill="#F7CC00"/>
<path d="M16.9566 42.5859H17.2735C17.2735 41.2543 18.3532 40.1691 19.6911 40.1691V39.8524C18.3591 39.8524 17.2735 38.773 17.2735 37.4355H16.9566C16.9566 38.7671 15.877 39.8524 14.5391 39.8524V40.1691C15.8711 40.1691 16.9566 41.2485 16.9566 42.5859Z" fill="black" fill-opacity="0.05"/>
<path d="M69.4624 59.1679C66.8101 57.3729 63.3481 56.1528 59.5046 55.7891C59.0997 55.7773 58.6831 55.7715 58.2665 55.7715C55.5789 55.7715 53.1437 56.0413 50.9667 56.5751C48.6078 57.1559 46.554 58.0475 44.7995 59.2501C44.1247 59.7135 43.5145 60.2062 42.9805 60.7283H71.4223C70.8355 60.1769 70.1842 59.6489 69.4683 59.1738L69.4624 59.1679Z" fill="#F7CC00"/>
<path d="M69.4624 59.1679C66.8101 57.3729 63.3481 56.1528 59.5046 55.7891C59.0997 55.7773 58.6831 55.7715 58.2665 55.7715C55.5789 55.7715 53.1437 56.0413 50.9667 56.5751C48.6078 57.1559 46.554 58.0475 44.7995 59.2501C44.1247 59.7135 43.5145 60.2062 42.9805 60.7283H71.4223C70.8355 60.1769 70.1842 59.6489 69.4683 59.1738L69.4624 59.1679Z" fill="black" fill-opacity="0.05"/>
<path d="M140.053 61C138.915 61 137.98 60.6546 137.249 59.9637C136.558 59.2322 136.213 58.3381 136.213 57.2814V22.0465C136.213 20.9899 136.558 20.1161 137.249 19.4252C137.98 18.6937 138.875 18.3279 139.931 18.3279H159.743C160.8 18.3279 161.674 18.6734 162.365 19.3643C163.096 20.0145 163.462 20.8679 163.462 21.9246C163.462 22.8187 163.096 23.6112 162.365 24.302C161.674 24.9929 160.8 25.3384 159.743 25.3384H143.284L143.833 24.6068V36.8598L143.406 36.0673H157C158.057 36.0673 158.93 36.4128 159.621 37.1036C160.353 37.7539 160.719 38.6073 160.719 39.664C160.719 40.5581 160.353 41.3505 159.621 42.0414C158.93 42.7323 158.057 43.0777 157 43.0777H143.284L143.833 42.5291V57.2814C143.833 58.3381 143.447 59.2322 142.674 59.9637C141.943 60.6546 141.069 61 140.053 61ZM200.74 18.267C201.797 18.267 202.65 18.6327 203.301 19.3643C203.951 20.0551 204.276 20.9289 204.276 21.9855V44.0531C204.276 47.4262 203.544 50.4133 202.081 53.0142C200.659 55.6152 198.688 57.6472 196.168 59.1102C193.649 60.5733 190.723 61.3048 187.39 61.3048C184.058 61.3048 181.111 60.5733 178.551 59.1102C176.031 57.6472 174.04 55.6152 172.577 53.0142C171.154 50.4133 170.443 47.4262 170.443 44.0531V21.9855C170.443 20.9289 170.809 20.0551 171.54 19.3643C172.272 18.6327 173.207 18.267 174.345 18.267C175.279 18.267 176.112 18.6327 176.844 19.3643C177.616 20.0551 178.002 20.9289 178.002 21.9855V44.0531C178.002 46.0851 178.429 47.8529 179.282 49.3566C180.176 50.8197 181.335 51.9576 182.757 52.7704C184.22 53.5832 185.764 53.9896 187.39 53.9896C189.138 53.9896 190.763 53.5832 192.267 52.7704C193.771 51.9576 194.99 50.8197 195.924 49.3566C196.859 47.8529 197.327 46.0851 197.327 44.0531V21.9855C197.327 20.9289 197.631 20.0551 198.241 19.3643C198.851 18.6327 199.684 18.267 200.74 18.267ZM245.795 18.3279C246.77 18.3279 247.562 18.6531 248.172 19.3033C248.782 19.9535 249.086 20.7663 249.086 21.7417V57.2814C249.086 58.3381 248.721 59.2322 247.989 59.9637C247.298 60.6546 246.424 61 245.368 61C244.84 61 244.291 60.9187 243.722 60.7562C243.194 60.553 242.787 60.2888 242.503 59.9637L218.545 29.5446L220.13 28.5692V57.5862C220.13 58.5616 219.805 59.3744 219.155 60.0246C218.545 60.6749 217.733 61 216.717 61C215.741 61 214.949 60.6749 214.339 60.0246C213.73 59.3744 213.425 58.5616 213.425 57.5862V22.0465C213.425 20.9899 213.77 20.1161 214.461 19.4252C215.193 18.6937 216.087 18.3279 217.143 18.3279C217.712 18.3279 218.302 18.4499 218.911 18.6937C219.521 18.8969 219.968 19.222 220.252 19.6691L243.478 49.2957L242.442 50.0272V21.7417C242.442 20.7663 242.747 19.9535 243.356 19.3033C243.966 18.6531 244.779 18.3279 245.795 18.3279Z" fill="#F7CC00"/>
<path d="M140.053 61C138.915 61 137.98 60.6546 137.249 59.9637C136.558 59.2322 136.213 58.3381 136.213 57.2814V22.0465C136.213 20.9899 136.558 20.1161 137.249 19.4252C137.98 18.6937 138.875 18.3279 139.931 18.3279H159.743C160.8 18.3279 161.674 18.6734 162.365 19.3643C163.096 20.0145 163.462 20.8679 163.462 21.9246C163.462 22.8187 163.096 23.6112 162.365 24.302C161.674 24.9929 160.8 25.3384 159.743 25.3384H143.284L143.833 24.6068V36.8598L143.406 36.0673H157C158.057 36.0673 158.93 36.4128 159.621 37.1036C160.353 37.7539 160.719 38.6073 160.719 39.664C160.719 40.5581 160.353 41.3505 159.621 42.0414C158.93 42.7323 158.057 43.0777 157 43.0777H143.284L143.833 42.5291V57.2814C143.833 58.3381 143.447 59.2322 142.674 59.9637C141.943 60.6546 141.069 61 140.053 61ZM200.74 18.267C201.797 18.267 202.65 18.6327 203.301 19.3643C203.951 20.0551 204.276 20.9289 204.276 21.9855V44.0531C204.276 47.4262 203.544 50.4133 202.081 53.0142C200.659 55.6152 198.688 57.6472 196.168 59.1102C193.649 60.5733 190.723 61.3048 187.39 61.3048C184.058 61.3048 181.111 60.5733 178.551 59.1102C176.031 57.6472 174.04 55.6152 172.577 53.0142C171.154 50.4133 170.443 47.4262 170.443 44.0531V21.9855C170.443 20.9289 170.809 20.0551 171.54 19.3643C172.272 18.6327 173.207 18.267 174.345 18.267C175.279 18.267 176.112 18.6327 176.844 19.3643C177.616 20.0551 178.002 20.9289 178.002 21.9855V44.0531C178.002 46.0851 178.429 47.8529 179.282 49.3566C180.176 50.8197 181.335 51.9576 182.757 52.7704C184.22 53.5832 185.764 53.9896 187.39 53.9896C189.138 53.9896 190.763 53.5832 192.267 52.7704C193.771 51.9576 194.99 50.8197 195.924 49.3566C196.859 47.8529 197.327 46.0851 197.327 44.0531V21.9855C197.327 20.9289 197.631 20.0551 198.241 19.3643C198.851 18.6327 199.684 18.267 200.74 18.267ZM245.795 18.3279C246.77 18.3279 247.562 18.6531 248.172 19.3033C248.782 19.9535 249.086 20.7663 249.086 21.7417V57.2814C249.086 58.3381 248.721 59.2322 247.989 59.9637C247.298 60.6546 246.424 61 245.368 61C244.84 61 244.291 60.9187 243.722 60.7562C243.194 60.553 242.787 60.2888 242.503 59.9637L218.545 29.5446L220.13 28.5692V57.5862C220.13 58.5616 219.805 59.3744 219.155 60.0246C218.545 60.6749 217.733 61 216.717 61C215.741 61 214.949 60.6749 214.339 60.0246C213.73 59.3744 213.425 58.5616 213.425 57.5862V22.0465C213.425 20.9899 213.77 20.1161 214.461 19.4252C215.193 18.6937 216.087 18.3279 217.143 18.3279C217.712 18.3279 218.302 18.4499 218.911 18.6937C219.521 18.8969 219.968 19.222 220.252 19.6691L243.478 49.2957L242.442 50.0272V21.7417C242.442 20.7663 242.747 19.9535 243.356 19.3033C243.966 18.6531 244.779 18.3279 245.795 18.3279Z" fill="black" fill-opacity="0.05"/>
</svg>
