<svg width="90" height="90" viewBox="0 0 90 90" fill="none" xmlns="http://www.w3.org/2000/svg">
<circle cx="45" cy="45" r="45" fill="white"/>
<path d="M63.7442 18.7605V8.44145C63.7436 8.30054 63.7152 8.16159 63.6612 8.03492C63.6072 7.90824 63.5289 7.79709 63.4322 7.70973C63.3368 7.62157 63.2253 7.55896 63.106 7.52649C62.9867 7.49402 62.8625 7.49252 62.7426 7.52211L55.3538 9.39831C55.1714 9.44531 55.0085 9.56206 54.892 9.72923C54.7756 9.8964 54.7126 10.104 54.7134 10.3176V18.1414C54.1529 17.8391 53.5218 17.7525 52.9147 17.8948C52.3075 18.037 51.7571 18.4004 51.346 18.9304C50.9349 19.4604 50.6853 20.1284 50.6346 20.8342C50.5839 21.54 50.7349 22.2456 51.0648 22.845C51.3948 23.4445 51.886 23.9056 52.4647 24.1591C53.0434 24.4126 53.6784 24.4448 54.2745 24.2509C54.8706 24.0571 55.3956 23.6476 55.7708 23.0839C56.146 22.5202 56.3511 21.8327 56.3554 21.1245C56.3639 20.9621 56.3639 20.7992 56.3554 20.6367V11.0681L62.1022 9.61407V16.2652C61.5414 15.9627 60.9099 15.8762 60.3025 16.0188C59.695 16.1614 59.1445 16.5253 58.7335 17.0559C58.3224 17.5865 58.0732 18.2551 58.0231 18.9614C57.973 19.6677 58.1248 20.3735 58.4557 20.9728C58.7866 21.572 59.2787 22.0325 59.8582 22.2849C60.4376 22.5374 61.0731 22.5682 61.6692 22.3728C62.2652 22.1774 62.7897 21.7662 63.1639 21.2012C63.538 20.6361 63.7417 19.9475 63.7442 19.239C63.7519 19.0796 63.7519 18.9199 63.7442 18.7605Z" fill="#C3A5E9"/>
<path d="M81.9847 24.9107H80.7915V23.7054C80.7915 23.3857 80.6658 23.0791 80.4421 22.853C80.2183 22.627 79.9148 22.5 79.5984 22.5H76.0188C75.7024 22.5 75.3989 22.627 75.1751 22.853C74.9513 23.0791 74.8256 23.3857 74.8256 23.7054V24.9107H73.6325C72.9996 24.9107 72.3926 25.1647 71.945 25.6168C71.4975 26.0689 71.2461 26.6821 71.2461 27.3214V34.5536C71.2466 35.088 71.4226 35.6072 71.7464 36.0298C72.0703 36.4524 72.5238 36.7546 73.0359 36.889V38.1696C73.0359 38.4893 73.1616 38.7959 73.3853 39.022C73.6091 39.248 73.9126 39.375 74.229 39.375H81.3881C81.7046 39.375 82.0081 39.248 82.2318 39.022C82.4556 38.7959 82.5813 38.4893 82.5813 38.1696V36.889C83.0934 36.7546 83.5469 36.4524 83.8707 36.0298C84.1946 35.6072 84.3706 35.088 84.3711 34.5536V27.3214C84.3711 26.6821 84.1197 26.0689 83.6721 25.6168C83.2246 25.1647 82.6176 24.9107 81.9847 24.9107ZM79.8967 28.8281C80.0737 28.8281 80.2467 28.8811 80.3938 28.9805C80.541 29.0798 80.6557 29.221 80.7234 29.3862C80.7912 29.5514 80.8089 29.7331 80.7744 29.9085C80.7398 30.0839 80.6546 30.245 80.5294 30.3714C80.4043 30.4978 80.2448 30.5839 80.0712 30.6188C79.8977 30.6537 79.7177 30.6358 79.5542 30.5673C79.3907 30.4989 79.2509 30.3831 79.1526 30.2344C79.0543 30.0857 79.0018 29.9109 79.0018 29.7321C79.0018 29.4924 79.0961 29.2624 79.2639 29.0929C79.4317 28.9234 79.6593 28.8281 79.8967 28.8281ZM80.2151 33.2556C79.4931 33.7102 78.6594 33.9512 77.8086 33.9512C76.9578 33.9512 76.1241 33.7102 75.4021 33.2556C75.2682 33.1702 75.1733 33.0347 75.1384 32.8787C75.1034 32.7227 75.1312 32.5591 75.2157 32.4239C75.3001 32.2886 75.4343 32.1928 75.5887 32.1574C75.7431 32.1221 75.9051 32.1502 76.039 32.2355C76.5703 32.5687 77.1832 32.7452 77.8086 32.7452C78.434 32.7452 79.0469 32.5687 79.5782 32.2355C79.7121 32.1502 79.8741 32.1221 80.0285 32.1574C80.1829 32.1928 80.3171 32.2886 80.4015 32.4239C80.486 32.5591 80.5138 32.7227 80.4788 32.8787C80.4439 33.0347 80.349 33.1702 80.2151 33.2556ZM76.0188 23.7054H79.5984V24.9107H76.0188V23.7054ZM75.7205 28.8281C75.8975 28.8281 76.0705 28.8811 76.2177 28.9805C76.3649 29.0798 76.4796 29.221 76.5473 29.3862C76.615 29.5514 76.6327 29.7331 76.5982 29.9085C76.5637 30.0839 76.4785 30.245 76.3533 30.3714C76.2282 30.4978 76.0687 30.5839 75.8951 30.6188C75.7215 30.6537 75.5416 30.6358 75.3781 30.5673C75.2145 30.4989 75.0748 30.3831 74.9765 30.2344C74.8781 30.0857 74.8256 29.9109 74.8256 29.7321C74.8256 29.4924 74.9199 29.2624 75.0877 29.0929C75.2556 28.9234 75.4832 28.8281 75.7205 28.8281ZM81.3881 38.1696H74.229V36.9643H81.3881V38.1696Z" fill="#F9CE00"/>
<path fill-rule="evenodd" clip-rule="evenodd" d="M36.4296 16.8395C37.1171 13.1743 35.4828 9.37659 32.7904 8.34674C29.7663 7.18942 25.48 10.191 26.3794 13.8207C26.6508 14.9173 27.1831 15.1773 28.2801 15.1996L28.3567 15.2016C29.1363 15.2148 29.3992 15.3028 29.5459 15.6427C29.6976 15.9947 29.699 16.4075 29.5842 17.4515C29.5367 17.8784 29.5218 18.0271 29.5041 18.2547C29.4013 19.5699 29.5516 20.5552 30.1348 21.4515C31.9661 24.2679 35.6543 20.967 36.4296 16.8395ZM27.047 13.4838C26.4035 10.8839 30.0356 8.34067 32.6068 9.32398C34.9293 10.2122 36.329 13.4646 35.745 16.5774C35.0901 20.0636 31.998 22.8314 30.6543 20.7656C30.2334 20.1182 30.1263 19.4171 30.2078 18.368C30.2248 18.1607 30.239 18.02 30.2844 17.6093C30.4261 16.3195 30.424 15.7519 30.1497 15.1136C29.8202 14.3488 29.3992 14.2092 28.3659 14.191L28.2901 14.189C27.4687 14.1728 27.1831 14.0332 27.047 13.4838Z" fill="#DA6D8D"/>
<path d="M29.3664 12.9595C29.1314 12.9595 28.9061 12.8263 28.7399 12.5891C28.5738 12.352 28.4805 12.0303 28.4805 11.695C28.4805 11.3596 28.5738 11.0379 28.7399 10.8008C28.9061 10.5636 29.1314 10.4304 29.3664 10.4304C29.6013 10.4304 29.8266 10.5636 29.9928 10.8008C30.1589 11.0379 30.2522 11.3596 30.2522 11.695C30.2522 12.0303 30.1589 12.352 29.9928 12.5891C29.8266 12.8263 29.6013 12.9595 29.3664 12.9595ZM32.2012 12.9595C31.9662 12.9595 31.7409 12.8263 31.5748 12.5891C31.4086 12.352 31.3153 12.0303 31.3153 11.695C31.3153 11.3596 31.4086 11.0379 31.5748 10.8008C31.7409 10.5636 31.9662 10.4304 32.2012 10.4304C32.4362 10.4304 32.6615 10.5636 32.8276 10.8008C32.9938 11.0379 33.0871 11.3596 33.0871 11.695C33.0871 12.0303 32.9938 12.352 32.8276 12.5891C32.6615 12.8263 32.4362 12.9595 32.2012 12.9595ZM33.973 15.9944C33.738 15.9944 33.5127 15.8612 33.3466 15.6241C33.1804 15.3869 33.0871 15.0653 33.0871 14.7299C33.0871 14.3945 33.1804 14.0729 33.3466 13.8357C33.5127 13.5986 33.738 13.4653 33.973 13.4653C34.2079 13.4653 34.4333 13.5986 34.5994 13.8357C34.7655 14.0729 34.8589 14.3945 34.8589 14.7299C34.8589 15.0653 34.7655 15.3869 34.5994 15.6241C34.4333 15.8612 34.2079 15.9944 33.973 15.9944ZM32.9099 19.5352C32.675 19.5352 32.4496 19.4019 32.2835 19.1648C32.1174 18.9276 32.024 18.606 32.024 18.2706C32.024 17.9352 32.1174 17.6136 32.2835 17.3765C32.4496 17.1393 32.675 17.0061 32.9099 17.0061C33.1449 17.0061 33.3702 17.1393 33.5363 17.3765C33.7025 17.6136 33.7958 17.9352 33.7958 18.2706C33.7958 18.606 33.7025 18.9276 33.5363 19.1648C33.3702 19.4019 33.1449 19.5352 32.9099 19.5352ZM35.4754 6.99589C35.5595 6.93163 35.6517 6.89222 35.7467 6.88004C35.8416 6.86786 35.9373 6.88314 36.028 6.92498C36.1188 6.96682 36.2026 7.03436 36.2746 7.12355C36.3466 7.21274 36.4053 7.32175 36.4471 7.44405L39.3478 15.9418C39.3963 16.0946 39.4021 16.2679 39.3642 16.4266C39.3263 16.5853 39.2475 16.7175 39.1438 16.7962C39.0401 16.8749 38.9193 16.8943 38.8059 16.8504C38.6926 16.8065 38.5952 16.7027 38.5335 16.5599L35.1969 8.396C35.149 8.27856 35.1181 8.1485 35.1062 8.01362C35.0943 7.87875 35.1016 7.74183 35.1277 7.61108C35.1538 7.48033 35.1981 7.35845 35.258 7.25274C35.3178 7.14703 35.392 7.05967 35.4762 6.99589" fill="#DA6D8D"/>
<path fill-rule="evenodd" clip-rule="evenodd" d="M34.1669 6.87425C34.5114 7.7999 35.0918 8.05888 35.6531 7.63298C36.2137 7.20809 36.3887 6.37551 36.0436 5.44986C35.6496 4.38966 34.8048 3.42861 34.2449 3.85248C33.685 4.27737 33.7715 5.81405 34.1669 6.87425ZM34.792 6.39878C34.6665 6.03908 34.5896 5.64888 34.5652 5.24855C34.5547 5.08119 34.559 4.9126 34.578 4.74677L34.5907 4.75588C34.6262 4.78016 34.736 4.853 34.8764 5.01283C35.0904 5.25664 35.303 5.61577 35.4178 5.92432C35.5801 6.35933 35.534 6.57784 35.32 6.74072C35.1074 6.90258 34.9543 6.83379 34.792 6.39979" fill="#DA6D8D"/>
<g clip-path="url(#clip0_326_3603)">
<rect width="13.125" height="16.875" transform="translate(5.625 22.5)" fill="white"/>
<path d="M12.1875 22.5C8.56552 22.5 5.625 26.2807 5.625 30.9375C5.625 35.5943 8.56552 39.375 12.1875 39.375C15.8029 39.375 18.7383 35.6078 18.7489 30.9625C18.7496 30.9542 18.75 30.9458 18.75 30.9375C18.75 30.93 18.7497 30.9225 18.7492 30.9151C18.7398 26.2685 15.8037 22.5 12.1875 22.5ZM12.1875 23.0063C12.4094 23.0063 12.6285 23.0221 12.8445 23.0515C12.8461 23.0879 12.7916 23.1131 12.6264 23.1048C12.5411 23.2007 12.5595 23.2167 12.2248 23.231C12.1576 23.6067 11.3765 23.3913 11.8865 23.1981C12.6276 22.9766 11.649 22.9685 11.4815 23.3392C11.9569 23.6019 11.1017 23.3856 10.9465 23.5771C10.8523 23.4526 10.6444 23.3505 10.4162 23.3392C10.9909 23.1182 11.5876 23.006 12.1875 23.0063ZM16.9017 25.8217C17.0777 26.09 17.2396 26.373 17.3864 26.6688C17.3926 26.7312 17.3943 26.7932 17.3883 26.8544C17.4727 27.1815 17.311 26.8696 17.3068 26.8281C17.097 26.549 17.0174 26.1828 16.9017 25.8217ZM7.5801 25.8546C7.70124 25.8326 7.04959 26.5276 7.31511 26.4548C7.57012 25.7106 7.69652 26.5912 7.32075 26.6452C7.011 27.6285 7.7208 26.1389 7.7271 26.6735C7.53744 27.1948 7.75388 27.5242 8.11901 27.2824C8.46906 27.1032 8.18871 27.5703 8.39017 27.5625C8.66317 27.0799 8.5734 27.5858 8.34844 27.9415C7.99301 28.1487 7.6557 27.7989 7.4184 27.5338C7.15852 28.2211 6.95102 27.2527 7.12545 26.9854C7.35986 26.8959 7.1349 26.7086 7.04184 26.5615C7.07977 26.4881 7.11902 26.4158 7.15866 26.344C7.19987 26.3046 7.21326 26.2741 7.21207 26.2478C7.26116 26.1617 7.31209 26.0773 7.3638 25.994C7.48429 25.9032 7.55346 25.8595 7.5801 25.8546ZM8.83656 25.8573C8.82199 26.129 9.42324 26.0417 9.38649 26.5265C9.18345 26.7164 9.02398 26.4 8.83656 26.3743C8.27074 26.6261 8.48559 26.0542 8.83656 25.8573ZM10.4786 25.9109C10.5269 25.9131 10.5607 25.9437 10.5656 26.0108C10.1076 26.1845 10.5229 26.9007 10.4864 27.3592C10.1618 27.5082 9.7557 27.1383 10.1851 26.804C9.78681 26.4234 10.2694 25.9013 10.4786 25.9109ZM16.7676 26.5448C16.9634 26.5173 17.1793 26.9425 17.3668 27.383C17.2801 26.6054 17.8809 28.4442 17.6341 27.3897C17.647 27.3541 17.6556 27.317 17.6613 27.279C18.1189 28.4086 18.3574 29.6638 18.3562 30.9375C18.3562 31.289 18.3366 31.6344 18.3022 31.9736C18.227 31.9881 18.2232 32.8751 18.0968 32.6496C17.9877 32.7688 18.3826 31.7099 18.0937 32.3683C17.64 32.9741 17.8924 31.9277 18.0628 31.636C18.1881 31.7237 18.2967 31.544 18.2253 31.1221C18.1741 30.437 17.9278 30.2205 17.8026 29.6079C17.5945 29.7387 17.9267 30.6322 17.8092 31.0409C17.7134 31.5742 17.5214 32.8408 17.1325 32.7509C16.9204 32.1201 17.1784 33.3314 17.0712 33.558C17.1537 33.7151 17.7718 33.881 17.689 33.2074C17.9192 32.3783 17.7887 33.1027 17.77 33.5639C18.0821 33.8744 17.245 34.3071 17.5362 34.0023C17.3202 33.8933 17.1422 34.2023 16.9577 34.1704C16.7982 34.3491 16.7854 34.0233 16.8553 33.9163C17.3426 33.627 16.632 33.7303 16.7484 33.4303C16.8088 32.7749 16.403 32.3375 16.2051 31.9144C16.1156 31.0985 16.7228 31.6982 16.6957 32.0178C17.3467 31.6434 17.0861 30.5391 16.6908 30.0409C16.9596 29.3219 16.8026 30.1267 17.0058 30.2303C17.0548 29.7632 17.1716 29.5124 17.4149 29.1109C17.5737 28.3892 17.3669 27.6524 16.9674 27.1376C17.1839 26.7695 16.5014 26.6487 16.7287 26.5562C16.7416 26.5503 16.7546 26.5466 16.7676 26.5448ZM9.79691 28.6673C9.73969 29.1086 10.5298 29.2335 10.2449 29.507C10.1691 29.5421 10.0887 29.5821 10.0063 29.5561C10.049 29.3141 9.40789 28.657 9.79691 28.6673ZM8.15379 28.7871C8.20669 28.7729 8.28727 28.9265 8.26326 29.195C8.35513 29.8717 8.54387 30.4766 8.6259 31.1211C8.63377 31.4147 8.5251 31.1515 8.49032 31.0674C8.19041 30.5418 8.24541 29.8113 8.14316 29.1508C8.08843 28.9111 8.11258 28.7984 8.15366 28.7873M10.5412 29.4749C10.8854 29.6974 11.629 29.4031 11.9837 29.8464C12.2186 29.505 11.9472 30.381 12.3454 30.4294C12.7788 30.2176 12.5524 30.7709 12.7082 31.1432C12.9348 31.6663 12.9877 32.4681 13.3941 32.7824C13.7779 32.1105 13.5567 33.5189 13.9855 33.0497C14.0736 32.4807 13.6398 32.0587 13.7716 31.4416C14.0173 31.0717 14.3979 30.7212 14.605 30.2537C14.9465 29.8015 15.2597 30.1437 15.4441 30.5857C15.4197 31.0236 15.5866 31.1729 15.8689 30.9269C16.0159 31.504 15.8449 32.26 16.2595 32.6858C16.5943 33.6775 15.8243 32.274 15.6797 32.8753C15.9953 33.26 15.9094 33.6407 16.1268 34.0408C16.3337 33.9946 16.5529 34.5477 16.8651 34.5256C17.1481 34.4043 17.5502 34.4234 17.8118 34.1961C17.6418 34.6811 17.4341 35.1429 17.1919 35.5744C16.9987 35.799 16.8466 36.0636 16.7046 36.3387C15.5789 37.8947 13.9728 38.8687 12.1875 38.8687C10.8053 38.8713 9.46293 38.2744 8.37731 37.1745C8.33466 36.8708 8.50725 36.9232 8.42023 36.6546C7.99236 36.1164 8.95311 36.2165 8.60319 35.5877C8.47562 35.1681 8.27271 34.6559 8.36996 34.2281C8.57668 33.8059 8.943 33.5978 9.2244 33.2374C9.40605 32.7905 9.76515 32.3715 9.69349 31.866C9.44857 31.8147 9.31116 31.9176 9.02976 31.9313C8.33636 31.7213 9.28438 31.5877 9.47272 31.4009C9.91136 31.2394 10.4177 31.0386 10.6943 30.5543C11.1015 30.2309 10.8625 29.7279 10.5415 29.4748M17.9305 30.9247C17.9969 30.9643 18.0552 31.558 17.9202 31.7996C17.7815 32.0977 17.71 31.3845 17.8523 31.2988C17.8684 31.0028 17.9003 30.9066 17.9305 30.9247ZM18.0699 32.9407C18.0827 32.9377 18.0999 32.9725 18.1255 33.0644C18.1284 33.059 18.1304 33.0577 18.1333 33.0526C18.09 33.2565 18.0404 33.4581 17.9845 33.6569C17.9036 33.734 17.8288 33.7718 17.861 33.5545C18.0445 33.6792 18.0143 32.9542 18.0699 32.9407ZM9.52641 35.8105C9.47732 35.8181 9.42272 35.8751 9.36536 35.9997C8.84929 36.0601 9.05233 36.8265 9.27847 37.1924C9.44516 37.4928 9.72709 37.3657 9.67682 36.9828C9.85177 36.6701 9.73903 35.7778 9.52641 35.8105Z" fill="#319900"/>
</g>
<g clip-path="url(#clip1_326_3603)">
<path d="M28.814 70.7888C28.8361 70.7689 28.9858 70.3252 29.4683 70.1221C29.9507 69.9191 30.4236 70.0504 30.7748 70.1427C31.2002 70.2549 32.2108 70.5644 32.2722 70.8598C32.3336 71.1551 32.1636 71.2327 32.387 71.3997C32.6104 71.5667 32.0003 71.7771 32.0003 71.7771L28.814 70.7888ZM40.8144 75.5955C40.8144 75.5955 41.0814 75.2132 40.8517 74.7906C40.5074 74.1541 39.7543 73.6905 38.9889 73.3833C38.7429 73.2846 38.4345 73.1995 38.2569 73.3668C38.1547 73.4639 38.0586 73.5933 37.9325 73.5615C37.8073 73.5311 40.1163 75.0932 40.8144 75.5955Z" fill="#464C4F"/>
<path d="M29.6959 76.2211C29.2009 76.2787 28.0501 77.5846 27.0443 77.6483C26.0385 77.712 24.2121 76.7292 24.3976 75.8501C24.5619 75.0752 25.4027 73.6449 26.6036 72.3204C27.8045 70.9959 28.5571 70.4029 30.0055 70.6915C31.1676 70.9226 33.3428 71.63 35.3939 72.4698C37.4464 73.3102 39.2476 74.0331 40.2586 74.7903C41.1652 75.4691 41.5611 76.4843 41.4577 78.1145C41.3525 79.7451 41.023 81.6238 40.736 82.1737C40.3177 82.9759 38.4168 82.8317 37.4221 81.68C36.63 80.7632 36.9627 79.372 36.5241 78.9783C36.0854 78.5846 30.1467 76.1677 29.6959 76.2211Z" fill="black"/>
<path d="M37.222 78.787C37.0897 78.8334 37.2642 79.0515 37.3127 79.3947C37.3612 79.7379 37.404 80.8268 37.7015 81.2456C38.0731 81.7671 38.4873 81.8638 38.6039 81.7935C38.7205 81.7231 38.3929 81.2889 38.1178 80.5034C37.8428 79.7179 37.4973 78.6909 37.222 78.787ZM26.0705 74.036C25.912 73.9944 24.9486 75.2386 25.0066 75.9513C25.0554 76.5455 25.9918 76.9534 26.3767 77.025C27.1432 77.168 27.5594 76.776 27.419 76.6577C27.28 76.5401 26.5659 76.691 26.1047 76.3026C25.5907 75.8686 25.8203 75.32 25.968 74.7318C26.1017 74.2021 26.2219 74.0757 26.0705 74.036ZM31.0577 72.4214C31.002 72.399 30.5134 72.2006 30.5134 72.2006L30.6822 71.7878C30.6822 71.7878 30.8272 71.4581 30.313 71.2606C29.8522 71.0834 29.7544 71.3546 29.7334 71.4069C29.7123 71.4593 29.5656 71.8169 29.5656 71.8169C29.5656 71.8169 29.0479 71.6047 28.9506 71.5679C28.8533 71.531 28.4902 71.3897 28.3591 71.7161C28.2354 72.0244 28.6005 72.1963 28.684 72.2321C28.7675 72.2678 29.2963 72.4801 29.2963 72.4801C29.2963 72.4801 29.1536 72.8239 29.1324 72.8805C29.1112 72.9372 29.02 73.2078 29.4781 73.3917C29.9784 73.5925 30.0813 73.2614 30.0813 73.2614L30.244 72.8638C30.244 72.8638 30.7105 73.0543 30.7925 73.0861C30.9102 73.1311 31.2629 73.2473 31.3993 72.9231C31.5329 72.6021 31.1148 72.4443 31.0577 72.4214Z" fill="#9E9E9E"/>
<path d="M31.3601 75.7485C32.0013 76.0059 32.6671 75.8507 32.8473 75.4018C33.0274 74.953 32.6537 74.3806 32.0125 74.1232C31.3713 73.8659 30.7055 74.0211 30.5254 74.4699C30.3452 74.9187 30.719 75.4912 31.3601 75.7485Z" fill="#AFAFAF"/>
<path d="M35.3445 77.3628C35.9857 77.6201 36.6515 77.4649 36.8317 77.0161C37.0118 76.5673 36.6381 75.9948 35.9969 75.7375C35.3557 75.4801 34.6899 75.6353 34.5098 76.0842C34.3296 76.533 34.7033 77.1054 35.3445 77.3628Z" fill="#AFAFAF"/>
<path d="M31.4768 75.4588C31.9055 75.6309 32.3506 75.5271 32.4711 75.227C32.5915 74.9269 32.3417 74.5442 31.913 74.3721C31.4843 74.2 31.0391 74.3038 30.9186 74.6039C30.7982 74.904 31.0481 75.2868 31.4768 75.4588Z" fill="#C8C8C8"/>
<path d="M35.4611 77.079C35.8898 77.251 36.335 77.1472 36.4555 76.8471C36.5759 76.5471 36.326 76.1643 35.8973 75.9922C35.4686 75.8202 35.0235 75.9239 34.903 76.224C34.7826 76.5241 35.0324 76.9069 35.4611 77.079Z" fill="#C8C8C8"/>
<path d="M37.2388 75.8218C37.5842 75.9604 37.9428 75.8768 38.0398 75.635C38.1369 75.3933 37.9355 75.0849 37.5902 74.9463C37.2448 74.8077 36.8862 74.8913 36.7891 75.133C36.6921 75.3748 36.8934 75.6832 37.2388 75.8218Z" fill="#2086FA"/>
<path d="M38.1411 77.1577C38.4865 77.2963 38.8451 77.2127 38.9422 76.971C39.0392 76.7292 38.8379 76.4209 38.4925 76.2822C38.1472 76.1436 37.7885 76.2272 37.6915 76.469C37.5945 76.7107 37.7958 77.0191 38.1411 77.1577Z" fill="#06AC48"/>
<path d="M39.6997 76.8901C40.0451 77.0288 40.4037 76.9452 40.5008 76.7034C40.5978 76.4616 40.3965 76.1533 40.0511 76.0147C39.7058 75.876 39.3471 75.9597 39.2501 76.2014C39.1531 76.4432 39.3544 76.7515 39.6997 76.8901Z" fill="#F72E26"/>
<path d="M38.8208 75.4995C39.1662 75.6381 39.5248 75.5545 39.6219 75.3128C39.7189 75.071 39.5176 74.7627 39.1722 74.624C38.8268 74.4854 38.4682 74.569 38.3712 74.8108C38.2741 75.0525 38.4755 75.3609 38.8208 75.4995Z" fill="#FDB700"/>
</g>
<g clip-path="url(#clip2_326_3603)">
<path d="M79.0848 64.1068C78.991 64.3125 78.9425 64.5333 78.9455 64.7413C78.9486 64.9492 79.0029 65.1351 79.1018 65.2753C79.2006 65.4155 79.3395 65.5037 79.5008 65.5288C79.6622 65.5539 79.8387 65.5148 80.0082 65.4164C80.1776 65.318 80.3323 65.1648 80.4528 64.976C80.5732 64.7872 80.6539 64.5715 80.6847 64.356C80.7155 64.1405 80.695 63.935 80.6259 63.7654C80.5567 63.5958 80.4419 63.4699 80.296 63.4034C80.1004 63.3145 79.8631 63.3386 79.636 63.4705C79.4089 63.6024 79.2107 63.8312 79.0848 64.1068ZM72.0415 59.6412C72.1873 59.7078 72.302 59.8337 72.3711 60.0033C72.4402 60.1728 72.4606 60.3782 72.4298 60.5935C72.3989 60.8089 72.3182 61.0245 72.1979 61.2132C72.0775 61.4018 71.9229 61.555 71.7535 61.6534C71.5842 61.7517 71.4077 61.7908 71.2465 61.7657C71.0852 61.7406 70.9464 61.6525 70.8476 61.5124C70.7488 61.3723 70.6944 61.1866 70.6913 60.9788C70.6883 60.7709 70.7366 60.5502 70.8303 60.3447C70.9562 60.0692 71.1543 59.8404 71.3813 59.7085C71.6083 59.5766 71.8457 59.5524 72.0412 59.6411L72.0415 59.6412ZM71.1293 55.6064L73.1274 56.517L71.782 58.3975L75.4756 57.5367L77.1799 58.3134L76.5551 59.7835L77.224 60.8353L77.8485 60.3893L78.3126 60.6008L78.101 61.314C82.4363 62.632 83.2667 65.1444 83.2667 65.1444C83.2667 65.1444 82.9478 65.2521 82.336 65.1448C82.1575 65.231 81.9515 65.7003 81.9515 65.7003L82.6706 66.028L82.365 66.6984L80.82 65.9942L81.3448 64.8428C81.2888 64.8208 81.2047 64.7997 81.126 64.7669C81.2148 64.5113 81.2617 64.2485 81.2633 63.9967C81.2649 63.7449 81.2213 63.5101 81.1354 63.3085C81.0496 63.1069 80.9235 62.9433 80.766 62.8289C80.6084 62.7146 80.4231 62.6523 80.2229 62.6462C80.0226 62.6402 79.8122 62.6906 79.606 62.794C79.3999 62.8974 79.203 63.0512 79.0289 63.245C78.8548 63.4388 78.7077 63.6678 78.5977 63.9163C78.4876 64.1649 78.4173 64.427 78.3916 64.6845L72.3233 61.9188C72.5075 61.7232 72.6638 61.4882 72.7805 61.2314C72.8972 60.9746 72.9714 60.7025 72.9976 60.4352C73.0238 60.168 73.0013 59.9125 72.9317 59.6877C72.8622 59.4629 72.7474 59.2746 72.5959 59.1367C72.4444 58.9988 72.26 58.9149 72.0565 58.8912C71.853 58.8675 71.6355 58.9046 71.4202 58.9998C71.205 59.095 70.9974 59.2457 70.813 59.441C70.6285 59.6362 70.472 59.8708 70.3548 60.1274C70.3311 60.1794 70.3096 60.2313 70.2898 60.2835L69.2202 59.796L71.1293 55.6064Z" fill="#E70C0C"/>
</g>
<g clip-path="url(#clip3_326_3603)">
<path d="M18.6321 48.167L15.974 48.8917L7.35527 54.7509L9.19952 57.4638L7.58253 58.563L8.58939 60.0441L11.2123 60.4245L12.7215 62.6445L17.9652 63.4087L25.5079 58.2811L18.6321 48.167ZM18.2258 49.8852L23.7604 58.0264L17.8343 62.0551L14.7742 61.6098L12.9298 58.8966L10.3094 58.5152L11.9241 57.4174L10.4139 55.1959L18.2258 49.8852ZM14.6827 56.262L15.3536 57.2488L18.5855 55.0517L17.9146 54.0648L14.6827 56.262ZM16.5274 58.9754L17.1981 59.9621L20.43 57.7649L19.7593 56.7783L16.5274 58.9754Z" fill="#5A3E85"/>
</g>
<defs>
<clipPath id="clip0_326_3603">
<rect width="13.125" height="16.875" fill="white" transform="translate(5.625 22.5)"/>
</clipPath>
<clipPath id="clip1_326_3603">
<rect width="18.75" height="13.125" fill="white" transform="translate(27.4922 66.3555) rotate(21.8693)"/>
</clipPath>
<clipPath id="clip2_326_3603">
<rect width="15" height="18.75" fill="white" transform="translate(73.4062 48.749) rotate(24.502)"/>
</clipPath>
<clipPath id="clip3_326_3603">
<rect width="13.125" height="15" fill="white" transform="translate(18.1289 47.4268) rotate(55.7913)"/>
</clipPath>
</defs>
</svg>
