<svg width="20" height="20" viewBox="0 0 20 20" fill="none" xmlns="http://www.w3.org/2000/svg">
<path d="M9.58149 19.7078C8.93019 19.7078 8.31347 19.7078 6.60964 12.9244C0.864487 11.8183 0.377196 11.1636 0.188786 10.9129C0.0247746 10.6919 -0.0443651 10.2894 0.029508 10.025C0.133201 9.655 0.3765 8.79835 6.94307 6.15112C9.30362 2.58535e-06 10.1067 0 10.6421 0C10.92 0 11.3036 0.198576 11.4697 0.423584C11.8946 0.992203 12.2768 2.46627 12.857 4.82276C13.0386 5.55742 13.2562 6.44322 13.3822 6.83766C13.7279 6.99151 14.4829 7.2626 15.1105 7.48761C18.4951 8.70076 19.368 9.1135 19.5252 9.92542C19.5855 10.2311 19.4303 10.675 19.1972 10.8844C18.5113 11.4998 15.2521 12.7109 13.5381 13.3209C10.756 19.6502 10.1583 19.6794 9.62962 19.7072C9.61607 19.7078 9.59573 19.7078 9.58149 19.7078ZM2.44902 10.1504C3.59982 10.4805 5.68047 10.9522 7.49476 11.2911C7.83498 11.3534 8.1081 11.6109 8.19078 11.9478C8.65571 13.8292 9.26229 15.9722 9.69943 17.2056C10.3372 16.0569 11.2941 14.0399 12.0715 12.2589C12.1698 12.0345 12.3568 11.8597 12.5879 11.7783C14.1379 11.2341 15.8865 10.5638 16.9851 10.0847C16.2179 9.76141 15.1843 9.39204 14.5141 9.15145C12.5839 8.46016 12.2213 8.3097 11.9725 7.9749C11.753 7.68144 11.6201 7.1955 11.1396 5.24499C10.96 4.51913 10.6869 3.40833 10.4436 2.56997C9.87156 3.66519 9.07861 5.50931 8.45984 7.13993C8.37174 7.37307 8.1901 7.55606 7.96035 7.64959C5.94613 8.45406 3.66014 9.47676 2.44902 10.1504Z" fill="white"/>
</svg>
