<svg width="17" height="17" viewBox="0 0 17 17" fill="none" xmlns="http://www.w3.org/2000/svg">
<path d="M8.56874 16.6587C8.5667 16.6587 8.56535 16.6587 8.56332 16.6587C8.07467 16.6553 7.68023 16.2582 7.68362 15.7688L7.77172 0.879697C7.77511 0.392406 8.1709 0 8.65616 0C8.6582 0 8.65955 0 8.66158 0C9.15091 0.00338867 9.54467 0.400538 9.54128 0.889862L9.45317 15.779C9.44979 16.267 9.05399 16.6587 8.56874 16.6587Z" fill="white"/>
<path d="M2.5669 13.4105C2.28903 13.4105 2.01388 13.279 1.84106 13.0323C1.56115 12.6318 1.65943 12.0801 2.06065 11.8002L14.3561 3.2282C14.7519 2.95169 15.3063 3.04318 15.5882 3.44779C15.8681 3.84833 15.7698 4.4 15.3686 4.6799L3.07317 13.2519C2.91933 13.359 2.74311 13.4105 2.5669 13.4105Z" fill="white"/>
<path d="M13.3644 14.036C13.1292 14.036 12.896 13.9425 12.7218 13.7595L3.42538 3.93506C3.0899 3.57925 3.10549 3.01944 3.45994 2.68396C3.81575 2.34713 4.37557 2.3661 4.71104 2.71852L14.0069 12.5436C14.3423 12.8995 14.3267 13.4593 13.9723 13.7947C13.8015 13.9567 13.5819 14.036 13.3644 14.036Z" fill="white"/>
<path d="M0.884494 9.05618C0.399236 9.05618 0.00479966 8.6658 5.55152e-05 8.17987C-0.00536636 7.69054 0.387041 7.29204 0.876366 7.28662L15.1989 7.15039C15.6652 7.17276 16.0868 7.53941 16.0922 8.0267C16.0976 8.51602 15.7052 8.91454 15.2159 8.91996L0.893305 9.05618C0.889916 9.05618 0.887883 9.05618 0.884494 9.05618Z" fill="white"/>
</svg>
