<svg width="1776" height="778" fill="none" xmlns="http://www.w3.org/2000/svg"><path d="M-91.716 5.045c37.74 6.557 109.303 11.073 206.082 14.1 96.839 3.028 219.088 4.567 358.303 5.139 256.752 1.053 571.271-1.188 890.641-3.462 26.96-.192 53.97-.385 80.97-.575 346.82-2.449 694.09-4.614 974.36-2.34 140.14 1.136 263.51 3.382 361.68 7.256 98.24 3.877 171.09 9.379 210.29 16.99 38.92 7.558 67.84 24.562 88.75 48.456 20.95 23.924 34 54.909 40.92 90.609 13.85 71.468 2.98 161.306-17.81 249.55-20.78 88.182-51.41 174.489-76.85 238.773-12.72 32.136-24.14 58.755-32.38 77.337a1413.48 1413.48 0 0 1-9.74 21.528 713.366 713.366 0 0 1-2.63 5.65c-.09.178-.16.344-.24.497l-.32-.002-5.66-.039c-5.01-.035-12.44-.086-22.15-.155-19.43-.136-47.98-.338-84.47-.602-72.99-.528-177.75-1.305-304.86-2.296-254.22-1.982-597.8-4.825-955.29-8.267-715.016-6.884-1485.552-16.164-1707.94-25.744-110.369-4.754-183.424-56.028-226.48-129.403-43.132-73.505-56.256-169.386-46.148-263.267 10.107-93.873 43.41-185.421 92.748-250.175C-230.607 29.855-165.548-7.783-91.716 5.045Z" fill="#F3F3F3" stroke="#000" stroke-width="5"/></svg>